# This file uses centimeters as units for non-parametric coordinates.

mtllib BarrerVer.mtl
v -24.658020 240.000183 0.000214
v -29.404602 240.000183 0.000214
v -24.658020 240.000183 -119.999786
v -29.404602 240.000183 -119.999786
v -24.658020 110.201393 0.000214
v -29.404602 110.201393 0.000214
v -29.404602 110.201393 -119.999786
v -24.658020 110.201393 -119.999786
v -0.000061 0.000626 0.000214
v -15.976379 96.000076 0.000214
v -38.086243 96.000076 0.000214
v -54.062439 0.000626 0.000214
v -38.086243 96.000069 -119.999786
v -15.976379 96.000069 -119.999786
v -0.000061 0.000626 -119.999786
v -54.062439 0.000626 -119.999786
v -0.000183 19.200516 0.000214
v -54.062439 19.200516 0.000214
v -54.062439 19.200512 -119.999786
v -0.000183 19.200512 -119.999786
v -24.658020 96.000076 0.000214
v -29.404602 96.000076 0.000214
v -29.404602 96.000061 -119.999786
v -24.658020 96.000061 -119.999786
v -24.658020 101.775574 -97.652405
v -24.658020 110.201393 -105.196564
v -24.658020 101.775574 -22.347198
v -24.658020 110.201393 -14.803009
v -24.658020 240.000183 -97.652405
v -24.658020 240.000183 -105.196564
v -24.658020 240.000183 -22.347198
v -24.658020 240.000183 -14.803009
v -29.404602 240.000183 -97.652405
v -29.404602 240.000183 -105.196564
v -29.404602 240.000183 -22.347198
v -29.404602 240.000183 -14.803009
v -29.404602 101.775574 -97.652405
v -29.404602 110.201393 -105.196564
v -29.404602 101.775574 -22.347198
v -29.404602 110.201393 -14.803009
v -21.158020 96.000069 -97.652405
v -21.158020 96.000069 -105.196564
v -21.158020 96.000069 -14.803009
v -21.158020 96.000069 -22.347198
v -21.158020 96.000076 0.000214
v -21.158020 96.000061 -119.999786
v -32.904602 96.000069 -105.196564
v -32.904602 96.000069 -97.652405
v -32.904602 96.000069 -22.347198
v -32.904602 96.000069 -14.803009
v -32.904602 96.000076 0.000214
v -32.904602 96.000061 -119.999786
v -21.857971 110.201393 -105.196564
v -21.158020 109.501465 -105.509369
v -21.158020 101.075645 -97.965210
v -21.857971 101.775574 -97.652405
v -21.857971 101.775574 -22.347198
v -21.158020 101.075645 -22.034393
v -21.158020 109.501465 -14.490204
v -21.857971 110.201393 -14.803009
v -21.158020 109.501465 0.000214
v -21.857971 110.201393 0.000214
v -21.158020 109.501465 -119.999786
v -21.857971 110.201393 -119.999786
v -32.904602 109.501465 -105.509369
v -32.204651 110.201393 -105.196564
v -32.204651 101.775574 -97.652405
v -32.904602 101.075645 -97.965210
v -32.904602 101.075645 -22.034393
v -32.204651 101.775574 -22.347198
v -32.204651 110.201393 -14.803009
v -32.904602 109.501465 -14.490204
v -32.904602 109.501465 0.000214
v -32.204651 110.201393 0.000214
v -32.904602 109.501465 -119.999786
v -32.204651 110.201393 -119.999786
v -29.404602 109.501465 0.000214
v -24.658020 109.501465 0.000214
v -24.658020 109.501465 -119.999786
v -29.404602 109.501465 -119.999786
vt 0.097263 0.358707
vt 0.735509 0.000007
vt 0.198702 0.000000
vt 0.335867 0.176542
vt 0.454991 0.108142
vt 0.588392 0.911494
vt 0.839014 0.719575
vt 0.845968 0.710330
vt 0.245003 0.555330
vt 0.822235 0.229169
vt 0.538799 0.337672
vt 0.558695 0.389435
vt 0.128191 0.395559
vt 0.753449 0.044807
vt 0.475485 0.151769
vt 0.362472 0.216231
vt 0.961025 0.416778
vt 0.608211 0.945707
vt 0.998685 0.423550
vt 0.877314 0.732123
vt 0.869254 0.743290
vt 0.875559 0.655180
vt 0.516789 0.844180
vt 0.942153 0.451006
vt 0.324678 0.922998
vt 0.161698 0.042047
vt 0.183121 0.035712
vt 0.024512 0.197928
vt 0.045935 0.191593
vt 0.613940 0.804321
vt 0.805698 0.738897
vt 0.806051 0.725502
vt 0.643309 0.879117
vt 0.945948 0.477944
vt 0.795185 0.763785
vt 0.272859 0.944259
vt 0.615633 0.883056
vt 0.008931 0.233640
vt 0.854083 0.672536
vt 0.562121 0.825581
vt 0.978303 0.470621
vt 0.657074 0.897079
vt 0.997793 0.433294
vt 0.966876 0.486333
vt 0.896713 0.663488
vt 0.894400 0.682799
vt 0.826798 0.774133
vt 0.808829 0.781859
vt 0.645477 0.912345
vt 0.965718 0.424025
vt 0.963999 0.422930
vt 0.851791 0.707849
vt 0.853864 0.708168
vt 0.883458 0.723816
vt 0.863174 0.751652
vt 0.881804 0.658791
vt 0.948763 0.452752
vt 0.839390 0.728100
vt 0.800281 0.768795
vt 0.646800 0.885429
vt 0.619568 0.889035
vt 0.594705 0.912867
vt 0.883942 0.660367
vt 0.951296 0.453408
vt 0.812298 0.745675
vt 0.647822 0.887879
vt 0.955531 0.479918
vt 0.802382 0.770415
vt 0.596381 0.914245
vt 0.620880 0.891274
vt 0.616445 0.941628
vt 0.862877 0.676816
vt 0.860582 0.675587
vt 0.952898 0.479612
vt 0.810464 0.743804
vt 0.838438 0.726311
vt 0.964113 0.404532
vt 0.963443 0.416353
vt 0.847539 0.712139
vt 0.841198 0.720603
vt 0.438637 0.524604
vt 0.472962 0.510521
vt 0.427630 0.529119
vt 0.393305 0.543202
vt 0.149375 0.643281
vt 0.183700 0.629198
vt 0.682567 0.424525
vt 0.716893 0.410442
vt 0.482440 0.483806
vt 0.657058 0.412164
vt 0.367795 0.530842
vt 0.193178 0.602483
vt 0.588065 0.914763
vt 1.000000 0.411232
vt 0.962277 0.404560
vt 0.207633 0.007860
vt 0.596446 0.811498
vt 0.551114 0.830097
vt 0.174190 0.027852
vt 0.033443 0.205787
vt 0.261852 0.948774
vt 0.840376 0.711419
vt 0.000000 0.225780
vt 0.307184 0.930175
vt 0.170629 0.049906
vt 0.788557 0.732679
vt 0.499295 0.851357
vt 0.037004 0.183733
vt 0.138368 0.647797
vt 0.033889 0.490287
vt 0.206052 0.596155
vt 0.000000 0.454994
vt 0.488585 0.366323
vt 0.841983 0.280990
vn 0.000000 0.000000 1.000000
vn 0.000000 0.000000 1.000000
vn 0.000000 0.000000 1.000000
vn 0.000000 0.000000 1.000000
vn 0.000000 0.000000 -1.000000
vn 0.000000 0.000000 -1.000000
vn 0.000000 0.000000 -1.000000
vn 0.000000 0.000000 -1.000000
vn -1.000000 0.000000 0.000000
vn -0.986434 0.164162 -0.000000
vn -0.986433 0.164162 -0.000000
vn -1.000000 0.000000 0.000000
vn 1.000000 0.000006 -0.000000
vn 0.986433 0.164163 -0.000000
vn 0.986433 0.164163 -0.000000
vn 1.000000 0.000006 -0.000000
vn 0.000000 0.000000 1.000000
vn 0.000000 0.000000 1.000000
vn 0.000000 0.000000 1.000000
vn 0.000000 0.000000 1.000000
vn 0.000000 0.000000 -1.000000
vn 0.000000 0.000000 -1.000000
vn 0.000000 0.000000 -1.000000
vn 0.000000 0.000000 -1.000000
vn 0.000000 0.000000 1.000000
vn 0.000000 0.000000 1.000000
vn -0.979041 0.203665 -0.000000
vn -0.979041 0.203665 -0.000000
vn 0.000000 0.000000 -1.000000
vn 0.000000 0.000000 -1.000000
vn 0.979041 0.203665 -0.000000
vn 0.979041 0.203665 -0.000000
vn 0.000000 1.000000 -0.000000
vn 0.000000 1.000000 -0.000000
vn 0.000000 1.000000 -0.000000
vn 0.000000 1.000000 -0.000000
vn 0.000000 0.000000 1.000000
vn 0.000000 0.000000 1.000000
vn 0.000000 0.000000 1.000000
vn 0.000000 0.000000 1.000000
vn 0.000000 0.000000 -1.000000
vn 0.000000 0.000000 -1.000000
vn 0.000000 0.000000 -1.000000
vn 0.000000 0.000000 -1.000000
vn 1.000000 0.000000 0.000000
vn 1.000000 0.000000 0.000000
vn 1.000000 0.000000 0.000000
vn 1.000000 0.000000 0.000000
vn 1.000000 0.000000 0.000000
vn 1.000000 0.000000 0.000000
vn 1.000000 0.000000 0.000000
vn 1.000000 0.000000 0.000000
vn 0.000000 1.000000 0.000000
vn 0.000000 1.000000 0.000000
vn 0.000000 1.000000 0.000000
vn 0.000000 1.000000 0.000000
vn 0.000000 1.000000 0.000000
vn 0.000000 1.000000 0.000000
vn 0.000000 1.000000 0.000000
vn 0.000000 1.000000 0.000000
vn -1.000000 0.000000 0.000000
vn -1.000000 0.000000 0.000000
vn -1.000000 0.000000 0.000000
vn -1.000000 0.000000 0.000000
vn -1.000000 0.000000 0.000000
vn -1.000000 0.000000 0.000000
vn -1.000000 0.000000 0.000000
vn -1.000000 0.000000 0.000000
vn 0.000000 1.000000 0.000000
vn 0.000000 1.000000 0.000000
vn -1.000000 0.000000 0.000000
vn -1.000000 0.000000 0.000000
vn 1.000000 0.000000 0.000000
vn 1.000000 0.000000 0.000000
vn 1.000000 0.000000 0.000000
vn 1.000000 0.000000 0.000000
vn 0.000000 1.000000 0.000000
vn 0.000000 1.000000 0.000000
vn -1.000000 0.000000 0.000000
vn -1.000000 0.000000 0.000000
vn 0.000000 0.000000 1.000000
vn 0.000000 0.000000 1.000000
vn 0.000000 0.000000 -1.000000
vn 0.000000 0.000000 -1.000000
vn 0.000000 0.000000 1.000000
vn 0.000000 0.000000 1.000000
vn 0.000000 0.000000 -1.000000
vn 0.000000 0.000000 -1.000000
vn 0.707095 0.707119 0.000000
vn 0.707095 0.707119 0.000000
vn 0.707095 0.707119 0.000000
vn 0.707095 0.707119 0.000000
vn 0.707095 0.471686 0.526810
vn 0.707095 0.471686 0.526810
vn 0.707095 0.471686 0.526810
vn 0.707095 0.471686 0.526810
vn 0.707096 0.707118 0.000000
vn 0.707096 0.707118 0.000000
vn 0.707096 0.707118 0.000000
vn 0.707096 0.707118 0.000000
vn 0.707098 0.471685 -0.526807
vn 0.707098 0.471685 -0.526807
vn 0.707098 0.471685 -0.526807
vn 0.707098 0.471685 -0.526807
vn 0.707095 0.707119 0.000000
vn 0.707095 0.707119 0.000000
vn 0.707095 0.707119 0.000000
vn 0.707095 0.707119 0.000000
vn -0.707095 0.707119 0.000000
vn -0.707095 0.707119 0.000000
vn -0.707095 0.707119 0.000000
vn -0.707095 0.707119 0.000000
vn -0.707095 0.471686 0.526810
vn -0.707095 0.471686 0.526810
vn -0.707095 0.471686 0.526810
vn -0.707095 0.471686 0.526810
vn -0.707097 0.707117 0.000000
vn -0.707097 0.707117 0.000000
vn -0.707097 0.707117 0.000000
vn -0.707097 0.707117 0.000000
vn -0.707098 0.471685 -0.526807
vn -0.707098 0.471685 -0.526807
vn -0.707098 0.471685 -0.526807
vn -0.707098 0.471685 -0.526807
vn -0.707095 0.707119 0.000000
vn -0.707095 0.707119 0.000000
vn -0.707095 0.707119 0.000000
vn -0.707095 0.707119 0.000000
vn 1.000000 0.000000 0.000000
vn 1.000000 0.000000 0.000000
vn 1.000000 0.000000 0.000000
vn 1.000000 0.000000 0.000000
vn 1.000000 -0.000000 0.000000
vn 1.000000 0.000000 0.000000
vn 1.000000 0.000000 0.000000
vn 1.000000 -0.000000 0.000000
vn -1.000000 -0.000000 0.000000
vn -1.000000 -0.000000 0.000000
vn -1.000000 -0.000000 0.000000
vn -1.000000 0.000000 0.000000
vn -1.000000 0.000000 0.000000
vn -1.000000 0.000000 0.000000
vn -1.000000 0.000000 0.000000
vn -1.000000 0.000000 0.000000
vn -1.000000 0.000000 0.000000
vn -1.000000 0.000000 0.000000
vn 1.000000 0.000000 0.000000
vn 1.000000 0.000000 0.000000
vn 1.000000 0.000000 0.000000
vn 1.000000 0.000000 0.000000
vn -1.000000 0.000000 0.000000
vn -1.000000 0.000000 0.000000
vn 0.000000 0.667053 0.745010
vn 0.000000 0.667053 0.745010
vn 0.000000 0.667053 0.745010
vn 0.000000 0.667053 0.745010
vn 0.000000 0.667055 -0.745009
vn 0.000000 0.667055 -0.745009
vn 0.000000 0.667055 -0.745009
vn 0.000000 0.667055 -0.745009
vn 0.000000 1.000000 0.000000
vn 0.000000 1.000000 0.000000
vn 0.000000 1.000000 0.000000
vn 0.000000 1.000000 0.000000
vn 0.000000 1.000000 0.000000
vn 0.000000 1.000000 0.000000
vn 0.000000 1.000000 0.000000
vn 0.000000 1.000000 0.000000
vn 0.000000 1.000000 0.000000
vn 0.000000 1.000000 0.000000
vn 0.000000 1.000000 0.000000
vn 0.000000 1.000000 0.000000
vn 0.000000 0.667053 0.745010
vn 0.000000 0.667053 0.745010
vn 0.000000 0.667053 0.745010
vn 0.000000 0.667053 0.745010
vn 0.000000 0.667055 -0.745009
vn 0.000000 0.667055 -0.745009
vn 0.000000 0.667055 -0.745009
vn 0.000000 0.667055 -0.745009
vn 0.000000 1.000000 0.000000
vn 0.000000 1.000000 0.000000
vn 0.000000 1.000000 0.000000
vn 0.000000 1.000000 0.000000
vn 0.000000 1.000000 0.000000
vn 0.000000 1.000000 0.000000
vn 0.000000 1.000000 0.000000
vn 0.000000 1.000000 0.000000
vn 0.000000 1.000000 0.000000
vn 0.000000 1.000000 0.000000
vn 0.000000 1.000000 0.000000
vn 0.000000 1.000000 0.000000
vn 0.000000 0.000000 1.000000
vn 0.000000 0.000000 1.000000
vn 0.000000 0.000000 1.000000
vn 0.000000 0.000000 1.000000
vn 0.000000 0.000000 -1.000000
vn 0.000000 0.000000 -1.000000
vn 0.000000 0.000000 -1.000000
vn 0.000000 0.000000 -1.000000
s 1
usemtl initialShadingGroup
f 9/1/1 17/13/2 18/110/3 12/112/4
s 2
f 19/15/5 20/16/6 15/4/7 16/5/8
s 3
f 12/2/9 18/14/10 19/15/11 16/5/12
s 4
f 15/4/13 20/16/14 17/13/15 9/1/16
s off
f 6/109/17 5/85/18 1/36/19 2/101/20
f 3/98/21 8/83/22 7/81/23 4/40/24
s 1
f 18/110/3 17/13/2 10/9/25 11/111/26
s 3
f 19/15/11 18/14/10 11/10/27 13/11/28
s 2
f 13/11/29 14/113/30 20/16/6 19/15/5
s 4
f 17/13/15 20/16/14 14/113/31 10/9/32
s off
f 13/11/33 11/10/34 10/114/35 14/12/36
s 5
f 5/17/37 6/95/38 77/77/39 78/78/40
s 6
f 7/7/41 8/8/42 79/79/43 80/80/44
s 7
f 25/91/45 26/84/46 30/23/47 29/107/48
f 28/86/49 27/92/50 31/25/51 32/104/52
s 8
f 29/26/53 30/99/54 34/27/55 33/105/56
f 32/28/57 31/108/58 35/29/59 36/100/60
s 9
f 33/30/61 34/97/62 38/82/63 37/89/64
f 36/32/65 35/106/66 39/90/67 40/87/68
s 7
f 27/92/50 25/91/45 29/107/48 31/25/51
s 8
f 31/108/58 29/26/53 33/105/56 35/29/59
s 9
f 35/106/66 33/30/61 37/89/64 39/90/67
s 8
f 1/103/69 32/28/57 36/100/60 2/38/70
s 9
f 36/32/65 40/87/68 6/88/71 2/102/72
s 7
f 5/85/73 28/86/49 32/104/52 1/36/74
f 30/23/47 26/84/46 8/83/75 3/98/76
s 8
f 34/27/55 30/99/54 3/3/77 4/96/78
s 9
f 7/81/79 38/82/63 34/97/62 4/40/80
s 5
f 5/17/37 78/78/40 61/50/81 62/51/82
s 6
f 63/53/83 79/79/43 8/8/42 64/52/84
s 5
f 73/69/85 77/93/39 6/6/38 74/62/86
s 6
f 7/7/41 80/80/44 75/58/87 76/76/88
s off
f 53/73/89 54/72/90 63/53/91 64/52/92
f 54/72/93 53/73/94 56/56/95 55/63/96
f 55/63/97 56/56/98 57/74/99 58/67/100
f 58/67/101 57/74/102 60/57/103 59/64/104
f 59/64/105 60/57/106 62/51/107 61/50/108
f 65/65/109 66/75/110 76/76/111 75/58/112
f 66/75/113 65/65/114 68/68/115 67/59/116
f 67/59/117 68/68/118 69/66/119 70/60/120
f 70/60/121 69/66/122 72/70/123 71/61/124
f 71/61/125 72/70/126 73/69/127 74/62/128
s 10
f 41/45/129 42/46/130 54/72/131 55/63/132
f 43/41/133 44/44/134 58/67/135 59/64/136
s 11
f 68/68/137 65/65/138 47/47/139 48/48/140
f 72/70/141 69/66/142 49/42/143 50/49/144
s 10
f 58/67/135 44/44/134 41/45/129 55/63/132
s 11
f 69/66/142 68/68/137 48/48/140 49/42/143
f 73/69/145 72/70/141 50/49/144 51/71/146
s 10
f 43/41/133 59/64/136 61/50/147 45/43/148
f 63/53/149 54/72/131 42/46/130 46/54/150
s 11
f 47/47/139 65/65/138 75/58/151 52/55/152
s off
f 26/39/153 25/22/154 56/56/155 53/73/156
f 27/34/157 28/24/158 60/57/159 57/74/160
f 25/22/161 27/34/162 57/74/163 56/56/164
f 28/24/165 5/17/166 62/51/167 60/57/168
f 8/8/169 26/39/170 53/73/171 64/52/172
f 37/35/173 38/31/174 66/75/175 67/59/176
f 40/37/177 39/33/178 70/60/179 71/61/180
f 39/33/181 37/35/182 67/59/183 70/60/184
f 6/6/185 40/37/186 71/61/187 74/62/188
f 38/31/189 7/7/190 76/76/191 66/75/192
s 5
f 22/18/193 77/93/39 73/69/85 51/71/194
f 78/78/40 77/77/39 22/94/193 21/19/195
f 61/50/81 78/78/40 21/19/195 45/43/196
s 6
f 24/20/197 79/79/43 63/53/83 46/54/198
f 80/80/44 79/79/43 24/20/197 23/21/199
f 75/58/87 80/80/44 23/21/199 52/55/200
