# This file uses centimeters as units for non-parametric coordinates.

v -135.000000 0.000000 268.798615
v 0.000000 0.000000 268.798615
v -135.000000 184.223694 268.798615
v 0.000000 184.223694 268.798615
v -135.000000 184.223694 -0.000031
v 0.000000 184.223694 -0.000031
v -135.000000 0.000000 -0.000031
v 0.000000 0.000000 -0.000031
v -60.750610 237.981506 268.798615
v 0.000000 237.981506 268.798615
v 0.000000 237.981506 -0.000031
v -60.750610 237.981506 -0.000031
vt 0.207099 0.291802
vt 0.251241 0.212478
vt 0.308905 0.314743
vt 0.326405 0.454940
vt 0.301480 0.450512
vt 0.352936 0.505752
vt 0.210915 0.475450
vt 0.221320 0.301611
vt 0.355219 0.312565
vt 0.357070 0.454940
vt 0.379852 0.469947
vt 0.350112 0.458184
vt 0.387885 0.303353
vt 0.357070 0.301611
vt 0.326405 0.301611
vt 0.360711 0.266805
vt 0.251408 0.548686
vt 0.221320 0.454940
vn 0.000000 0.000000 1.000000
vn 0.000000 0.000000 1.000000
vn 0.000000 0.000000 1.000000
vn 0.000000 0.000000 1.000000
vn 0.000000 1.000000 0.000000
vn 0.000000 1.000000 0.000000
vn 0.000000 1.000000 0.000000
vn 0.000000 1.000000 0.000000
vn 0.000000 0.000000 -1.000000
vn 0.000000 0.000000 -1.000000
vn 0.000000 0.000000 -1.000000
vn 0.000000 0.000000 -1.000000
vn 1.000000 0.000000 0.000000
vn 1.000000 0.000000 0.000000
vn 1.000000 0.000000 0.000000
vn 1.000000 0.000000 0.000000
vn -1.000000 0.000000 0.000000
vn -1.000000 0.000000 0.000000
vn -1.000000 0.000000 0.000000
vn -1.000000 0.000000 0.000000
vn 0.000000 0.000000 1.000000
vn 0.000000 0.000000 1.000000
vn 0.000000 0.000000 1.000000
vn 0.000000 0.000000 1.000000
vn 1.000000 0.000000 0.000000
vn 1.000000 0.000000 0.000000
vn 1.000000 0.000000 0.000000
vn 1.000000 0.000000 0.000000
vn 0.000000 0.000000 -1.000000
vn 0.000000 0.000000 -1.000000
vn 0.000000 0.000000 -1.000000
vn 0.000000 0.000000 -1.000000
vn -0.586446 0.809989 0.000000
vn -0.586446 0.809989 0.000000
vn -0.586446 0.809989 0.000000
vn -0.586446 0.809989 0.000000
s off
f 1/1/1 2/2/2 4/16/3 3/3/4
f 9/9/5 10/13/6 11/11/7 12/12/8
f 5/5/9 6/6/10 8/17/11 7/7/12
f 2/18/13 8/8/14 6/15/15 4/4/16
f 7/7/17 1/1/18 3/3/19 5/5/20
f 3/3/21 4/16/22 10/13/23 9/9/24
f 4/4/25 6/15/26 11/14/27 10/10/28
f 6/6/29 5/5/30 12/12/31 11/11/32
f 5/5/33 3/3/34 9/9/35 12/12/36
