# This file uses centimeters as units for non-parametric coordinates.

v 180.000000 0.000015 0.000244
v 0.000000 0.000015 0.000244
v 180.000000 870.000000 0.000244
v 0.000000 870.000000 0.000244
v 180.000000 870.000000 90.000244
v 0.000000 870.000000 90.000244
v 180.000000 0.000015 90.000244
v 0.000000 0.000015 90.000244
v 161.099976 869.999390 90.000244
v 18.900024 869.999390 90.000244
v 18.900024 0.000015 90.000244
v 161.099976 0.000015 90.000244
v 161.099976 869.999390 68.655518
v 18.900024 869.999390 68.655518
v 18.900024 0.000015 68.655518
v 161.099976 0.000015 68.655518
vt 0.597402 0.608112
vt 0.677152 0.608112
vt 0.597402 0.993569
vt 0.418989 0.993569
vt 0.557528 0.993569
vt 0.458864 0.993569
vt 0.557528 0.608112
vt 0.458864 0.608112
vt 0.418989 0.608112
vt 0.677152 0.993569
vt 0.549154 0.993569
vt 0.467238 0.993569
vt 0.467238 0.608112
vt 0.549154 0.608112
vt 0.539697 0.993569
vt 0.476695 0.993569
vt 0.476695 0.608112
vt 0.539697 0.608112
vn 0.000000 0.000000 -1.000000
vn 0.000000 0.000000 -1.000000
vn 0.000000 0.000000 -1.000000
vn 0.000000 0.000000 -1.000000
vn 0.000000 0.000000 1.000000
vn 0.000000 0.000000 1.000000
vn 0.000000 0.000000 1.000000
vn 0.000000 0.000000 1.000000
vn -1.000000 0.000000 0.000000
vn -1.000000 0.000000 0.000000
vn -1.000000 0.000000 0.000000
vn -1.000000 0.000000 0.000000
vn 1.000000 0.000000 0.000000
vn 1.000000 0.000000 0.000000
vn 1.000000 0.000000 0.000000
vn 1.000000 0.000000 0.000000
vn -0.000000 0.000000 1.000000
vn -0.000000 0.000000 1.000000
vn -0.000000 0.000000 1.000000
vn -0.000000 0.000000 1.000000
vn 0.000000 0.000000 1.000000
vn 0.000000 0.000000 1.000000
vn 0.000000 0.000000 1.000000
vn 0.000000 0.000000 1.000000
vn 1.000000 0.000000 0.000000
vn 1.000000 0.000000 0.000000
vn 1.000000 0.000000 0.000000
vn 1.000000 0.000000 0.000000
vn -1.000000 0.000000 0.000000
vn -1.000000 0.000000 0.000000
vn -1.000000 0.000000 0.000000
vn -1.000000 0.000000 0.000000
s off
f 1/1/1 2/2/2 4/10/3 3/3/4
f 13/15/5 14/16/6 15/17/7 16/18/8
f 2/9/9 8/8/10 6/6/11 4/4/12
f 7/7/13 1/1/14 3/3/15 5/5/16
f 6/6/17 8/8/18 11/13/19 10/12/20
f 7/7/21 5/5/22 9/11/23 12/14/24
f 10/12/25 11/13/26 15/17/27 14/16/28
f 12/14/29 9/11/30 13/15/31 16/18/32
