# This file uses centimeters as units for non-parametric coordinates.

mtllib Column_ViewR.mtl
v -60.000000 0.000000 0.000000
v 60.000000 0.000000 0.000000
v -60.000000 600.000061 0.000000
v 60.000000 600.000061 0.000000
v -60.000000 600.000061 -64.365540
v -42.001709 600.000061 -82.363747
v -60.000000 0.000000 -64.365540
v -42.001709 0.000000 -82.363747
v 42.001709 600.000061 -82.363747
v 60.000000 600.000061 -64.365540
v 60.000000 0.000000 -64.365540
v 42.001709 0.000000 -82.363747
vt 0.752893 0.893194
vt 0.247107 0.000000
vt 0.060329 0.250055
vt 0.939671 0.643139
vt 0.813222 0.812427
vt 0.000000 0.330823
vt 0.837079 0.780488
vt 0.162921 0.112707
vt 1.000000 0.562372
vt 0.186778 0.080767
vt 0.084186 0.218116
vt 0.915814 0.675079
vn 0.000000 0.000000 -1.000000
vn 0.000000 0.000000 -1.000000
vn 0.000000 0.000000 -1.000000
vn 0.000000 0.000000 -1.000000
vn 1.000000 0.000000 0.000000
vn 1.000000 0.000000 0.000000
vn 1.000000 0.000000 0.000000
vn 1.000000 0.000000 0.000000
vn -1.000000 0.000000 0.000000
vn -1.000000 0.000000 0.000000
vn -1.000000 0.000000 0.000000
vn -1.000000 0.000000 0.000000
vn -0.707105 0.000000 -0.707108
vn -0.707105 0.000000 -0.707108
vn -0.707105 0.000000 -0.707108
vn -0.707105 0.000000 -0.707108
vn 0.707105 0.000000 -0.707108
vn 0.707105 0.000000 -0.707108
vn 0.707105 0.000000 -0.707108
vn 0.707105 0.000000 -0.707108
s off
usemtl initialShadingGroup
f 8/7/1 6/11/2 9/8/3 12/12/4
f 2/9/5 11/4/6 10/10/7 4/2/8
f 5/3/9 7/5/10 1/1/11 3/6/12
f 5/3/13 6/11/14 8/7/15 7/5/16
f 9/8/17 10/10/18 11/4/19 12/12/20
