# This file uses centimeters as units for non-parametric coordinates.

v 180.000000 0.000000 0.000000
v 0.000000 0.000000 0.000000
v 180.000000 435.000000 0.000000
v 0.000000 435.000000 0.000000
v 180.000000 528.682190 7.373169
v 0.000000 528.682190 7.373169
v 180.000000 620.057678 29.310669
v 0.000000 620.057678 29.310669
v 180.000000 706.876404 65.271362
v 0.000000 706.876404 65.271362
v 180.000000 787.000610 114.372070
v 0.000000 787.000610 114.372070
v 180.000000 858.457458 175.401855
v 0.000000 858.457458 175.401855
v 180.000000 794.817810 239.041565
v 0.000000 794.817810 239.041565
v 180.000000 734.099915 187.183289
v 0.000000 734.099915 187.183289
v 180.000000 666.017273 145.462280
v 0.000000 666.017273 145.462280
v 180.000000 592.246155 114.905273
v 0.000000 592.246155 114.905273
v 180.000000 514.603088 96.264526
v 0.000000 514.603088 96.264526
v 180.000000 435.000000 90.000000
v 0.000000 435.000000 90.000000
v 180.000000 0.000000 90.000000
v 0.000000 0.000000 90.000000
v 161.100006 794.817810 239.041565
v 18.899963 794.817810 239.041565
v 18.900024 734.099915 187.183289
v 161.099976 734.099915 187.183289
v 18.900024 666.017273 145.462280
v 161.099976 666.017273 145.462280
v 18.900024 592.246155 114.905273
v 161.099976 592.246155 114.905273
v 18.900024 514.603088 96.264526
v 161.099976 514.603088 96.264526
v 18.900024 435.000000 90.000000
v 161.099976 435.000000 90.000000
v 161.099976 0.000000 90.000000
v 18.900024 0.000000 90.000000
v 161.099976 810.900208 225.252991
v 18.900024 810.900208 225.252991
v 18.900024 741.335449 165.838867
v 161.099976 741.335449 165.838867
v 18.900024 673.252808 124.117844
v 161.099976 673.252808 124.117844
v 18.900024 599.481689 93.560860
v 161.099976 599.481689 93.560860
v 18.900024 521.838623 74.920113
v 161.099976 521.838623 74.920113
v 18.900024 442.235535 68.655586
v 161.099976 442.235535 68.655586
v 161.099976 -0.000002 68.655586
v 18.900024 -0.000002 68.655586
vt 0.596966 0.607357
vt 0.677619 0.607357
vt 0.596966 0.801248
vt 0.418522 0.801248
vt 0.596966 0.839404
vt 0.418522 0.839404
vt 0.596966 0.877524
vt 0.418522 0.877524
vt 0.596966 0.915801
vt 0.418522 0.915801
vt 0.596966 0.954066
vt 0.418522 0.954066
vt 0.596966 0.994324
vt 0.418522 0.994324
vt 0.556923 0.994324
vt 0.457842 0.994324
vt 0.556923 0.954066
vt 0.457842 0.954066
vt 0.556923 0.915801
vt 0.457842 0.915801
vt 0.556923 0.877524
vt 0.457842 0.877524
vt 0.556923 0.839404
vt 0.457842 0.839404
vt 0.556923 0.801248
vt 0.457842 0.801248
vt 0.556923 0.607357
vt 0.457842 0.607357
vt 0.677619 0.954066
vt 0.677619 0.994324
vt 0.677619 0.915801
vt 0.677619 0.877524
vt 0.677619 0.839404
vt 0.677619 0.801248
vt 0.418522 0.607357
vt 0.548619 0.994324
vt 0.466110 0.994324
vt 0.466110 0.954066
vt 0.548619 0.954066
vt 0.466110 0.915801
vt 0.548619 0.915801
vt 0.466110 0.877524
vt 0.548619 0.877524
vt 0.466110 0.839404
vt 0.548619 0.839404
vt 0.466110 0.801248
vt 0.548619 0.801248
vt 0.466110 0.607357
vt 0.548619 0.607357
vt 0.538984 0.994324
vt 0.475698 0.994324
vt 0.475698 0.954066
vt 0.538984 0.954066
vt 0.475698 0.915801
vt 0.538984 0.915801
vt 0.475698 0.877524
vt 0.538984 0.877524
vt 0.475698 0.839404
vt 0.538984 0.839404
vt 0.475698 0.801248
vt 0.538984 0.801248
vt 0.475698 0.607357
vt 0.538984 0.607357
vn 0.000000 0.013945 -0.999903
vn 0.000000 0.013945 -0.999903
vn 0.000000 0.000000 -1.000000
vn 0.000000 0.000000 -1.000000
vn 0.000000 0.156437 -0.987688
vn 0.000000 0.156437 -0.987688
vn 0.000000 0.309014 -0.951057
vn 0.000000 0.309014 -0.951057
vn 0.000000 0.453989 -0.891007
vn 0.000000 0.453989 -0.891007
vn 0.000000 0.587787 -0.809016
vn 0.000000 0.587787 -0.809016
vn 0.000000 0.649447 -0.760407
vn 0.000000 0.649447 -0.760407
vn 0.000000 -0.649449 0.760405
vn 0.000000 -0.649449 0.760405
vn 0.000000 -0.592101 0.805864
vn 0.000000 -0.592101 0.805864
vn 0.000000 -0.453990 0.891007
vn 0.000000 -0.453990 0.891007
vn 0.000000 -0.309019 0.951056
vn 0.000000 -0.309019 0.951056
vn 0.000000 -0.156434 0.987688
vn 0.000000 -0.156434 0.987688
vn 0.000000 -0.012004 0.999928
vn 0.000000 -0.012004 0.999928
vn 0.000000 0.000000 1.000000
vn 0.000000 0.000000 1.000000
vn -1.000000 0.000000 0.000000
vn -1.000000 0.000000 0.000000
vn -1.000000 0.000000 0.000000
vn -1.000000 0.000000 0.000000
vn -1.000000 0.000000 0.000000
vn -1.000000 0.000000 0.000000
vn -1.000000 0.000000 0.000000
vn -1.000000 0.000000 0.000000
vn -1.000000 0.000000 0.000000
vn -1.000000 0.000000 0.000000
vn -1.000000 0.000000 0.000000
vn -1.000000 0.000000 0.000000
vn -1.000000 0.000000 0.000000
vn -1.000000 0.000000 0.000000
vn 1.000000 0.000000 0.000000
vn 1.000000 0.000000 0.000000
vn 1.000000 0.000000 0.000000
vn 1.000000 0.000000 0.000000
vn 1.000000 0.000000 0.000000
vn 1.000000 0.000000 0.000000
vn 1.000000 0.000000 0.000000
vn 1.000000 0.000000 0.000000
vn 1.000000 0.000000 0.000000
vn 1.000000 0.000000 0.000000
vn 1.000000 0.000000 0.000000
vn 1.000000 0.000000 0.000000
vn 1.000000 0.000000 0.000000
vn 1.000000 0.000000 0.000000
vn 0.000000 -0.649450 0.760404
vn 0.000000 -0.587786 0.809016
vn 0.000000 -0.587786 0.809016
vn 0.000000 -0.649450 0.760404
vn 0.000000 -0.587786 0.809016
vn 0.000000 -0.649450 0.760404
vn 0.000000 -0.649450 0.760404
vn 0.000000 -0.587786 0.809016
vn 0.000000 -0.453990 0.891007
vn 0.000000 -0.453990 0.891007
vn 0.000000 -0.453990 0.891007
vn 0.000000 -0.453990 0.891007
vn 0.000000 -0.309019 0.951056
vn 0.000000 -0.309019 0.951056
vn 0.000000 -0.309019 0.951056
vn 0.000000 -0.309019 0.951056
vn 0.000000 -0.156434 0.987688
vn 0.000000 -0.156434 0.987688
vn 0.000000 -0.156434 0.987688
vn 0.000000 -0.156434 0.987688
vn 0.000000 -0.012173 0.999926
vn 0.000000 -0.012173 0.999926
vn 0.000000 -0.012173 0.999926
vn 0.000000 -0.012173 0.999926
vn 0.000000 0.000000 1.000000
vn 0.000000 0.000000 1.000000
vn 0.000000 0.000000 1.000000
vn 0.000000 0.000000 1.000000
vn 1.000000 -0.000001 0.000001
vn 1.000000 -0.000001 0.000001
vn 1.000000 -0.000001 0.000001
vn 1.000000 -0.000001 0.000001
vn -1.000000 -0.000000 0.000001
vn -1.000000 -0.000000 0.000001
vn -1.000000 -0.000000 0.000001
vn -1.000000 -0.000000 0.000001
vn 1.000000 0.000000 0.000000
vn 1.000000 0.000000 0.000000
vn 1.000000 0.000000 0.000000
vn 1.000000 0.000000 0.000000
vn -1.000000 0.000000 0.000000
vn -1.000000 0.000000 0.000000
vn -1.000000 0.000000 0.000000
vn -1.000000 0.000000 0.000000
vn 1.000000 -0.000000 0.000000
vn 1.000000 -0.000000 0.000000
vn 1.000000 -0.000000 0.000000
vn 1.000000 -0.000000 0.000000
vn -1.000000 0.000000 0.000000
vn -1.000000 0.000000 0.000000
vn -1.000000 0.000000 0.000000
vn -1.000000 0.000000 0.000000
vn 1.000000 0.000000 0.000000
vn 1.000000 0.000000 0.000000
vn 1.000000 0.000000 0.000000
vn 1.000000 0.000000 0.000000
vn -1.000000 0.000000 0.000000
vn -1.000000 0.000000 0.000000
vn -1.000000 0.000000 0.000000
vn -1.000000 0.000000 0.000000
vn 1.000000 -0.000000 0.000000
vn 1.000000 -0.000000 0.000000
vn 1.000000 -0.000000 0.000000
vn 1.000000 -0.000000 0.000000
vn -1.000000 0.000000 0.000000
vn -1.000000 0.000000 0.000000
vn -1.000000 0.000000 0.000000
vn -1.000000 0.000000 0.000000
vn -1.000000 0.000000 0.000000
vn -1.000000 0.000000 0.000000
vn -1.000000 0.000000 0.000000
vn -1.000000 0.000000 0.000000
vn 1.000000 0.000000 0.000000
vn 1.000000 0.000000 0.000000
vn 1.000000 0.000000 0.000000
vn 1.000000 0.000000 0.000000
s 1
f 4/34/1 3/3/2 1/1/3 2/2/4
f 3/3/2 4/34/1 6/33/5 5/5/6
f 5/5/6 6/33/5 8/32/7 7/7/8
f 7/7/8 8/32/7 10/31/9 9/9/10
f 9/9/10 10/31/9 12/29/11 11/11/12
f 11/11/12 12/29/11 14/30/13 13/13/14
s 2
f 43/50/15 44/51/16 45/52/17 46/53/18
f 46/53/18 45/52/17 47/54/19 48/55/20
f 48/55/20 47/54/19 49/56/21 50/57/22
f 50/57/22 49/56/21 51/58/23 52/59/24
f 52/59/24 51/58/23 53/60/25 54/61/26
f 56/62/27 55/63/28 54/61/26 53/60/25
s 3
f 4/4/29 2/35/30 28/28/31 26/26/32
f 4/4/29 26/26/32 24/24/33 6/6/34
f 6/6/34 24/24/33 22/22/35 8/8/36
f 8/8/36 22/22/35 20/20/37 10/10/38
f 10/10/38 20/20/37 18/18/39 12/12/40
f 12/12/40 18/18/39 16/16/41 14/14/42
s 4
f 1/1/43 3/3/44 25/25/45 27/27/46
f 25/25/45 3/3/44 5/5/47 23/23/48
f 23/23/48 5/5/47 7/7/49 21/21/50
f 21/21/50 7/7/49 9/9/51 19/19/52
f 19/19/52 9/9/51 11/11/53 17/17/54
f 17/17/54 11/11/53 13/13/55 15/15/56
s 5
f 16/16/57 18/18/58 31/38/59 30/37/60
s 6
f 17/17/61 15/15/62 29/36/63 32/39/64
s 5
f 18/18/58 20/20/65 33/40/66 31/38/59
s 6
f 19/19/67 17/17/61 32/39/64 34/41/68
s 5
f 20/20/65 22/22/69 35/42/70 33/40/66
s 6
f 21/21/71 19/19/67 34/41/68 36/43/72
s 5
f 22/22/69 24/24/73 37/44/74 35/42/70
s 6
f 23/23/75 21/21/71 36/43/72 38/45/76
s 5
f 24/24/73 26/26/77 39/46/78 37/44/74
s 6
f 25/25/79 23/23/75 38/45/76 40/47/80
f 27/27/81 25/25/79 40/47/80 41/49/82
s 5
f 26/26/77 28/28/83 42/48/84 39/46/78
s off
f 30/37/85 31/38/86 45/52/87 44/51/88
f 32/39/89 29/36/90 43/50/91 46/53/92
f 31/38/93 33/40/94 47/54/95 45/52/96
f 34/41/97 32/39/98 46/53/99 48/55/100
f 33/40/101 35/42/102 49/56/103 47/54/104
f 36/43/105 34/41/106 48/55/107 50/57/108
f 35/42/109 37/44/110 51/58/111 49/56/112
f 38/45/113 36/43/114 50/57/115 52/59/116
f 37/44/117 39/46/118 53/60/119 51/58/120
f 40/47/121 38/45/122 52/59/123 54/61/124
f 41/49/125 40/47/126 54/61/127 55/63/128
f 39/46/129 42/48/130 56/62/131 53/60/132
