# This file uses centimeters as units for non-parametric coordinates.

v -695.363281 -14.999878 806.898438
v 0.000000 15.000122 1172.160400
v -695.363281 15.000122 806.898438
v 0.000000 15.000122 -1172.160156
v -695.362305 15.000732 -807.126709
v -695.363281 -14.999268 -807.126709
v -170.796875 -14.999634 1331.571411
v -170.795898 15.000610 1331.571411
v -170.795898 15.001892 -1331.800537
v -170.796875 -14.998352 -1331.800537
vt 0.293986 0.608578
vt 0.150311 0.617781
vt 0.081896 0.992077
vt 0.009033 0.861786
vt 0.003839 0.860361
vt 0.272654 0.569552
vt 0.037530 0.995530
vt 0.032054 0.996113
vt 0.146426 0.614045
vt 0.270113 0.564707
vn -0.707178 0.000011 0.707035
vn -0.707178 0.000011 0.707035
vn -0.707178 0.000011 0.707035
vn -0.707178 0.000011 0.707035
vn 0.000000 1.000000 0.000000
vn 0.000000 1.000000 0.000000
vn 0.000000 1.000000 0.000000
vn 0.000000 1.000000 0.000000
vn -0.707179 0.000023 -0.707034
vn -0.707179 0.000023 -0.707034
vn -0.707179 0.000023 -0.707034
vn -0.707179 0.000023 -0.707034
vn -1.000000 0.000018 -0.000000
vn -1.000000 0.000018 -0.000000
vn -1.000000 0.000018 -0.000000
vn -1.000000 0.000018 -0.000000
vn 0.000001 1.000000 -0.000002
vn 0.000001 1.000000 -0.000002
vn 0.000001 1.000000 -0.000002
vn 0.000004 1.000000 0.000007
vn 0.000004 1.000000 0.000007
vn 0.000004 1.000000 0.000007
s off
f 7/10/1 8/6/2 3/2/3 1/9/4
f 2/1/5 4/3/6 5/4/7 3/2/8
f 9/7/9 10/8/10 6/5/11 5/4/12
f 1/9/13 3/2/14 5/4/15 6/5/16
f 2/1/17 3/2/18 8/6/19
f 5/4/20 4/3/21 9/7/22
