# This file uses centimeters as units for non-parametric coordinates.

mtllib Frame_Window_ViewR.mtl
v -13.954102 532.677246 -231.649231
v -17.499756 531.844177 -227.466766
v -13.954102 72.188400 -692.454224
v -17.499756 69.182037 -690.446533
v 13.954346 532.677246 -231.649231
v 17.500000 531.844177 -227.466766
v 13.954346 72.188400 -692.454224
v 17.500000 69.182037 -690.446533
v -13.954102 67.322617 -620.919678
v -17.499756 68.155685 -625.102112
v 13.954346 67.322617 -620.919678
v 17.500000 68.155685 -625.102112
v 13.954346 527.811523 -160.113983
v 17.500000 530.817871 -162.121643
v -13.954102 527.811523 -160.113983
v -17.499756 530.817871 -162.121643
v -13.871338 538.438232 -234.034332
v -14.552979 539.975952 -236.279083
v -19.394775 539.975952 -231.111450
v -17.499756 538.243103 -230.026794
v -17.499756 60.776016 -714.263184
v -19.839355 60.023956 -715.720032
v -15.050781 60.023956 -723.196533
v -13.898193 60.622131 -720.391235
v 17.500000 538.243164 -230.026825
v 19.395020 539.975952 -231.111725
v 14.553223 539.975952 -236.279083
v 13.871582 538.438232 -234.034332
v 13.898438 60.622131 -720.391235
v 15.051025 60.023956 -723.196533
v 19.839600 60.023956 -715.720032
v 17.500000 60.776016 -714.263184
v -13.895264 61.560501 -618.534119
v -14.583252 60.023956 -616.289856
v -19.395020 60.023956 -621.427551
v -17.499756 61.754990 -622.515625
v 17.500000 61.755066 -622.515686
v 19.395264 60.023956 -621.427612
v 14.583496 60.023956 -616.289856
v 13.895508 61.560501 -618.534119
v 14.252930 539.350464 -132.242828
v 15.686768 539.975952 -129.376678
v 19.860840 539.975952 -138.920837
v 17.500000 539.128784 -140.177368
v -17.499756 539.128784 -140.177155
v -19.860596 539.975952 -138.920624
v -15.686523 539.975952 -129.376678
v -14.252686 539.350464 -132.242828
v 32.838623 54.022171 0.000122
v 26.836914 60.023956 0.000122
v 32.838623 54.022171 -606.844482
v 26.836914 60.023956 -606.844482
v -26.836914 60.023956 0.000122
v -32.838623 54.022171 0.000122
v -32.838623 54.022171 -606.839844
v -26.836914 60.023956 -606.839294
v 26.836914 573.209045 -814.274597
v 32.838623 570.723022 -808.272827
v 32.838623 593.998108 -784.997742
v 26.836914 599.999878 -787.483765
v 26.836914 539.975952 -727.490845
v 32.838623 545.977783 -729.976868
v 32.838623 515.671204 -760.283508
v 26.836914 513.185181 -754.281738
v -26.836914 599.999878 -787.483765
v -32.838623 593.998108 -784.997742
v -32.838623 570.723022 -808.272766
v -26.836914 573.209045 -814.274597
v -26.836670 513.185120 -754.281799
v -32.838379 515.671143 -760.283569
v -32.838379 545.977661 -729.976929
v -26.836670 539.975952 -727.490906
v -26.836914 26.790817 -814.274597
v -32.838623 29.276855 -808.272766
v -32.838623 6.001801 -784.997742
v -26.836914 -0.000031 -787.483765
v 26.836914 -0.000031 -787.483765
v 32.838623 6.001770 -784.997742
v 32.838623 29.276840 -808.272827
v 26.836914 26.790817 -814.274597
v -26.836914 599.999878 -246.894104
v -32.838623 593.998108 -246.893097
v 32.838623 593.998108 0.000122
v 26.836914 599.999878 0.000122
v 26.836914 599.999878 -120.760162
v 32.838623 593.998108 -120.760162
v 26.836914 -0.000031 -606.844666
v 32.838623 6.001770 -606.844666
v -32.838623 6.001770 0.000122
v -26.836914 -0.000031 0.000122
v -26.836914 -0.000031 -606.844666
v -32.838623 6.001770 -606.844116
v -26.836914 86.814835 -754.282898
v -32.838623 84.328812 -760.284729
v 32.838623 84.328842 -760.284668
v 26.836914 86.814850 -754.282898
v -32.838623 545.977722 0.000122
v -26.836914 539.975952 0.000122
v -32.838623 545.977722 -120.760010
v -26.836914 539.975952 -120.760010
v 26.836914 539.975952 0.000122
v 32.838623 545.977722 0.000122
v 32.838623 545.977783 -120.760010
v 26.836914 539.975952 -120.760010
v 26.836914 -0.000031 0.000122
v 32.838623 6.001770 0.000122
v -26.836914 599.999878 -120.760162
v -32.838623 593.998108 -120.760162
v 26.836914 599.999878 -246.894073
v 32.838623 593.998108 -246.893066
v -26.836914 599.999878 0.000122
v -32.838623 593.998108 0.000122
v -32.837891 54.022232 -729.978088
v -26.836182 60.023987 -727.492065
v 32.838623 54.022171 -729.978088
v 26.836914 60.023956 -727.492065
v 32.838623 545.977783 -246.885101
v 26.836914 539.975952 -246.884094
v -32.838623 545.977722 -246.885101
v -26.836914 539.975952 -246.884094
vt 0.056345 0.260952
vt 0.052272 0.258828
vt 0.327248 0.021914
vt 0.335884 0.012585
vt 0.045906 0.245858
vt 0.042553 0.247813
vt 0.314610 0.008520
vt 0.329108 0.001421
vt 0.327368 0.059524
vt 0.331538 0.062353
vt 0.335685 0.075939
vt 0.274070 0.006695
vt 0.013008 0.236451
vt 0.062997 0.319971
vt 0.058687 0.296957
vt 0.051234 0.307129
vt 0.055488 0.257990
vt 0.043989 0.248895
vt 0.328085 0.062591
vt 0.338650 0.074204
vt 0.043262 0.244456
vt 0.066690 0.318206
vt 0.070252 0.307293
vt 0.051183 0.311988
vt 0.316285 0.010789
vt 0.336281 0.009520
vt 0.056423 0.295275
vt 0.052980 0.260414
vt 0.330646 0.060442
vt 0.329427 0.023740
vt 0.337908 0.077580
vt 0.325903 0.002085
vt 0.029682 0.944203
vt 0.057880 0.964216
vt 0.396912 0.360160
vt 0.504650 0.433687
vt 0.512174 0.422467
vt 0.416061 0.389660
vt 0.481481 0.405863
vt 0.479847 0.416056
vt 0.475707 0.413622
vt 0.332545 0.633110
vt 0.441837 0.406867
vt 0.445742 0.409681
vt 0.319248 0.603322
vt 0.461239 0.377098
vt 0.336373 0.636139
vt 0.329801 0.646097
vt 0.326513 0.642685
vt 0.276840 0.702193
vt 0.730311 0.070214
vt 0.003885 0.925850
vt 0.083499 0.982553
vt 0.079656 0.979784
vt 0.314989 0.600543
vt 0.297390 0.625409
vt 0.287651 0.583050
vt 0.673827 0.035148
vt 0.644295 0.016765
vt 0.700673 0.051841
vt 0.054052 0.961465
vt 0.400461 0.355878
vt 0.411945 0.387221
vt 0.485457 0.408408
vt 0.465513 0.379475
vt 0.434455 0.360692
vt 0.350375 0.668327
vt 0.250961 0.581389
vt 0.265944 0.606142
vt 0.630138 0.171570
vt 0.280255 0.705406
vt 0.000000 0.923090
vt 0.360792 0.654381
vt 0.283242 0.580580
vt 0.204911 0.651004
vt 0.025823 0.941472
vt 0.549741 0.121105
vt 0.430367 0.358033
vt 0.302297 0.725807
vt 0.694245 0.127758
vt 0.704712 0.054348
vt 0.621424 0.002519
vt 0.608581 0.074477
vt 0.648333 0.019281
vt 0.677862 0.037651
vt 0.664680 0.109472
vt 0.668703 0.111965
vt 0.656289 0.186596
vt 0.585796 0.060256
vt 0.571671 0.135121
vt 0.257369 0.685750
vt 0.226883 0.664207
vt 0.243103 0.588789
vt 0.301029 0.629009
vt 0.641986 0.095361
vt 0.626000 0.169220
vt 0.603864 0.155556
vt 0.601293 0.143477
vt 0.599960 0.153152
vt 0.584264 0.136069
vt 0.575546 0.137576
vt 0.255524 0.674204
vt 0.253811 0.683016
vt 0.239216 0.665846
vt 0.230660 0.666658
vt 0.610543 0.087755
vt 0.612588 0.076989
vt 0.630130 0.093689
vt 0.637982 0.092863
vt 0.269913 0.616337
vt 0.270564 0.608040
vt 0.290122 0.623629
vt 0.251711 0.674973
vt 0.274983 0.614022
vt 0.289616 0.628987
vt 0.238624 0.662147
vt 0.615325 0.084415
vt 0.597530 0.144523
vt 0.583566 0.132198
vt 0.629232 0.099484
vt 0.049834 0.313073
vt 0.049817 0.307710
vt 0.000000 0.239091
vt 0.062739 0.321711
vt 0.340113 0.073716
vt 0.340852 0.076528
vt 0.331977 0.060678
vt 0.332889 0.061943
vt 0.326287 0.000696
vt 0.329969 0.000015
vt 0.042910 0.249920
vt 0.042074 0.248992
vt 0.337690 0.008697
vt 0.337307 0.012143
vt 0.051667 0.260375
vt 0.051054 0.259531
vt 0.107861 1.000000
vt 0.200699 0.648824
vt 0.545817 0.118412
vt 0.581748 0.057733
vt 0.617371 0.000000
vt 0.238767 0.587323
vt 0.246770 0.579179
vt 0.396519 0.353407
vt 0.393102 0.357421
vt 0.072058 0.309351
vt 0.001198 0.238000
vt 0.339418 0.076474
vt 0.275919 0.009659
vt 0.273206 0.005361
vt 0.067310 0.319568
vn -0.999398 0.024304 -0.024745
vn -0.139783 0.694221 -0.706058
vn -0.119867 0.714030 -0.689778
vn -0.993328 0.082882 -0.080183
vn 0.139783 0.694221 -0.706058
vn 0.999398 0.024304 -0.024745
vn 0.993328 0.082882 -0.080183
vn 0.119867 0.714030 -0.689778
vn -0.999399 -0.024296 0.024737
vn -0.139776 -0.694205 0.706075
vn -0.120132 -0.714064 0.689696
vn -0.993344 -0.082689 0.080183
vn 0.139776 -0.694205 0.706075
vn 0.999399 -0.024296 0.024737
vn 0.993344 -0.082689 0.080183
vn 0.120132 -0.714064 0.689696
vn -0.096743 -0.564776 -0.819554
vn -0.006664 -0.998596 -0.052549
vn 0.006664 -0.998596 -0.052549
vn 0.096743 -0.564777 -0.819553
vn -0.917427 -0.394884 -0.048922
vn -0.060717 -0.998148 -0.003706
vn -0.711922 -0.695157 0.099625
vn -0.055818 -0.998439 0.002219
vn -0.544361 0.830537 -0.117812
vn -0.054150 0.998530 -0.002326
vn -0.060928 0.998135 0.003701
vn -0.916232 0.397745 0.048153
vn -0.037000 0.933173 -0.357517
vn -0.006215 0.999407 -0.033865
vn 0.037000 0.933173 -0.357517
vn 0.006216 0.999407 -0.033865
vn 0.917423 -0.394895 -0.048920
vn 0.060713 -0.998148 -0.003706
vn 0.055819 -0.998439 0.002219
vn 0.711922 -0.695156 0.099625
vn 0.544366 0.830533 -0.117812
vn 0.054154 0.998530 -0.002326
vn 0.916233 0.397742 0.048153
vn 0.060935 0.998135 0.003701
vn -0.096432 0.565326 0.819212
vn -0.007212 0.998341 0.057118
vn 0.007211 0.998342 0.057115
vn 0.096434 0.565326 0.819211
vn 0.036695 -0.934172 0.354931
vn 0.004782 -0.999782 0.020335
vn -0.004782 -0.999782 0.020335
vn -0.036695 -0.934172 0.354931
vn -1.000000 -0.000000 0.000000
vn 1.000000 0.000000 0.000000
vn 0.100069 0.994981 0.000000
vn 0.993885 0.110418 0.000000
vn 0.994289 0.106720 0.000000
vn 0.116290 0.993215 -0.000000
vn 0.998675 0.050551 0.009593
vn 0.331543 0.816476 0.472701
vn -0.993885 0.110417 0.000000
vn -0.100068 0.994981 0.000000
vn -0.116281 0.993216 -0.000000
vn -0.994290 0.106715 -0.000001
vn -0.331546 0.816476 0.472699
vn -0.998675 0.050558 0.009593
vn 0.084415 0.046294 -0.995355
vn 0.974792 0.009807 -0.222899
vn 0.974792 -0.009807 -0.222902
vn 0.084415 -0.046294 -0.995355
vn 0.084589 0.995318 -0.046760
vn 0.976516 0.215232 -0.009547
vn 0.099907 0.994997 0.000000
vn 0.993393 0.114760 0.000000
vn 0.118995 -0.991495 0.052716
vn 0.998302 -0.058157 0.003253
vn 0.994364 -0.106024 0.000000
vn 0.121216 -0.992626 -0.000000
vn 0.119613 -0.058979 0.991067
vn 0.998494 -0.003418 0.054763
vn 0.119613 0.058973 0.991068
vn 0.998494 0.003418 0.054762
vn -0.084589 0.995318 -0.046760
vn -0.976517 0.215230 -0.009546
vn -0.993393 0.114758 -0.000000
vn -0.099907 0.994997 0.000000
vn -0.084416 0.046294 -0.995355
vn -0.974793 0.009807 -0.222897
vn -0.084416 -0.046294 -0.995355
vn -0.974792 -0.009807 -0.222899
vn -0.119616 -0.058978 0.991067
vn -0.998493 -0.003418 0.054765
vn -0.998493 0.003418 0.054765
vn -0.119617 0.058973 0.991067
vn -0.118993 -0.991495 0.052716
vn -0.998302 -0.058160 0.003253
vn -0.121214 -0.992626 -0.000000
vn -0.994363 -0.106026 -0.000000
vn -0.085916 -0.988165 -0.127079
vn -0.982521 -0.184773 -0.022624
vn -0.099926 -0.994995 -0.000000
vn -0.993471 -0.114084 -0.000000
vn 0.085916 -0.988165 -0.127079
vn 0.982520 -0.184776 -0.022626
vn 0.993472 -0.114080 0.000000
vn 0.099928 -0.994995 0.000000
vn -0.993885 0.110420 0.000000
vn -0.100068 0.994981 0.000000
vn 0.100069 0.994981 0.000000
vn 0.993885 0.110418 0.000000
vn 0.993885 0.110420 0.000000
vn 0.100068 0.994981 0.000000
vn 0.993885 -0.110418 0.000000
vn 0.100069 -0.994981 0.000000
vn -0.100069 -0.994981 0.000000
vn -0.993885 -0.110418 0.000000
vn -0.100069 -0.994981 0.000000
vn -0.993885 -0.110418 0.000000
vn -0.993885 -0.110416 0.000000
vn -0.175228 -0.984528 0.000000
vn 0.993885 -0.110418 -0.000000
vn 0.100069 -0.994981 -0.000000
vn 0.175229 -0.984528 -0.000000
vn 0.993885 -0.110416 -0.000000
vn -0.993885 0.110418 0.000000
vn -0.100069 0.994981 0.000000
s 1
usemtl initialShadingGroup
f 2/1/1 1/17/2 3/3/3 4/30/4
f 5/5/5 6/21/6 8/7/7 7/25/8
f 10/9/9 9/19/10 15/15/11 16/27/12
f 11/11/13 12/31/14 14/146/15 13/23/16
f 1/17/2 5/5/5 7/25/8 3/3/3
f 13/23/16 15/15/11 9/19/10 11/11/13
f 6/21/6 14/13/15 12/149/14 8/7/7
f 16/27/12 2/1/1 4/30/4 10/9/9
f 17/2/17 18/136/18 27/131/19 28/18/20
f 18/136/18 17/2/17 20/28/21 19/135/22
f 19/135/22 20/28/21 45/16/23 46/122/24
f 21/4/25 22/134/26 35/127/27 36/29/28
f 22/134/26 21/4/25 24/26/29 23/133/30
f 23/133/30 24/26/29 29/8/31 30/130/32
f 25/6/33 26/132/34 43/123/35 44/147/36
f 26/132/34 25/6/33 28/18/20 27/131/19
f 30/130/32 29/8/31 32/32/37 31/129/38
f 31/129/38 32/32/37 37/12/39 38/150/40
f 33/10/41 34/128/42 39/125/43 40/20/44
f 34/128/42 33/10/41 36/29/28 35/127/27
f 38/126/40 37/148/39 40/20/44 39/125/43
f 41/14/45 42/124/46 47/121/47 48/24/48
f 42/124/46 41/14/45 44/22/36 43/151/35
f 46/122/24 45/16/23 48/24/48 47/121/47
f 1/17/2 2/1/1 20/28/21 17/2/17
f 4/30/4 3/3/3 24/26/29 21/4/25
f 6/21/6 5/5/5 28/18/20 25/6/33
f 7/25/8 8/7/7 32/32/37 29/8/31
f 9/19/10 10/9/9 36/29/28 33/10/41
f 12/31/14 11/11/13 40/20/44 37/148/39
f 13/23/16 14/146/15 44/22/36 41/14/45
f 16/27/12 15/15/11 48/24/48 45/16/23
f 1/17/2 17/2/17 28/18/20 5/5/5
f 9/19/10 33/10/41 40/20/44 11/11/13
f 14/13/15 6/21/6 25/6/33 44/147/36
f 13/23/16 41/14/45 48/24/48 15/15/11
f 16/27/12 45/16/23 20/28/21 2/1/1
f 21/4/49 36/29/28 10/9/9 4/30/4
f 8/7/7 12/149/14 37/12/39 32/32/50
f 3/3/3 7/25/8 29/8/31 24/26/29
f 50/33/51 49/76/52 51/92/53 52/105/54
f 52/105/54 51/92/53 115/69/55 116/111/56
f 54/34/57 53/61/58 56/103/59 55/91/60
f 55/91/60 56/103/59 114/56/61 113/94/62
f 57/145/63 58/35/64 79/68/65 80/143/66
f 58/35/64 57/145/63 60/144/67 59/62/68
f 59/62/68 60/144/67 109/139/69 110/77/70
f 61/66/71 62/78/72 117/90/73 118/101/74
f 62/78/72 61/66/71 64/38/75 63/63/76
f 63/63/76 64/38/75 96/57/77 95/74/78
f 65/64/79 66/39/80 82/96/81 81/70/82
f 66/39/80 65/64/79 68/40/83 67/41/84
f 67/41/84 68/40/83 73/47/85 74/42/86
f 69/43/87 70/44/88 94/45/89 93/55/90
f 70/44/88 69/43/87 72/46/91 71/65/92
f 71/65/92 72/46/91 120/99/93 119/97/94
f 74/42/86 73/47/85 76/48/95 75/49/96
f 75/49/96 76/48/95 91/71/97 92/50/98
f 77/142/99 78/93/100 88/75/101 87/138/102
f 78/93/100 77/142/99 80/143/66 79/68/65
f 81/70/82 82/96/81 108/86/103 107/87/104
f 84/141/105 83/82/106 86/89/107 85/140/108
f 85/140/108 86/89/107 110/77/70 109/139/69
f 87/138/102 88/75/101 106/52/109 105/72/110
f 90/53/111 89/54/112 92/50/98 91/71/97
f 93/55/90 94/45/89 113/94/62 114/56/61
f 95/74/78 96/57/77 116/111/56 115/69/55
f 98/58/113 97/85/114 99/95/115 100/109/116
f 100/109/116 99/95/115 119/97/94 120/99/93
f 102/59/117 101/84/118 104/107/119 103/83/120
f 103/83/120 104/107/119 118/101/74 117/90/73
f 107/87/104 108/86/103 112/60/121 111/81/122
f 56/103/59 53/61/58 50/33/51 52/105/54
f 58/35/64 59/62/68 62/78/72 63/63/76
f 60/37/67 57/36/63 68/40/83 65/64/79
f 66/39/80 67/41/84 70/44/88 71/65/92
f 64/38/75 61/66/71 72/46/91 69/43/87
f 74/42/86 75/49/96 113/94/62 94/45/89
f 76/48/95 73/47/85 80/73/66 77/67/99
f 78/93/100 79/68/65 95/74/78 115/69/55
f 93/55/90 114/56/61 116/111/56 96/57/77
f 81/70/82 109/88/69 60/37/67 65/64/79
f 90/53/111 91/71/97 87/79/102 105/137/110
f 69/43/87 93/55/90 96/57/77 64/38/75
f 73/47/85 68/40/83 57/36/63 80/73/66
f 95/74/78 79/68/65 58/35/64 63/63/76
f 106/52/109 88/75/101 51/92/53 49/76/52
f 94/45/89 70/44/88 67/41/84 74/42/86
f 110/77/70 117/90/73 62/78/72 59/62/68
f 87/79/102 91/71/97 76/48/95 77/67/99
f 84/51/105 85/80/108 107/87/104 111/81/122
f 86/89/107 83/82/106 102/59/117 103/83/120
f 104/107/119 101/84/118 98/58/113 100/109/116
f 99/95/115 97/85/114 112/60/121 108/86/103
f 107/87/104 85/80/108 109/88/69 81/70/82
f 86/89/107 103/83/120 117/90/73 110/77/70
f 55/91/60 92/50/98 89/54/112 54/34/57
f 51/92/53 88/75/101 78/93/100 115/69/55
f 113/94/62 75/49/96 92/50/98 55/91/60
f 99/95/115 108/86/103 82/96/81 119/97/94
f 119/97/94 82/96/81 66/39/80 71/65/92
f 118/101/74 120/99/93 72/46/91 61/66/71
f 18/118/18 19/98/22 120/99/93
f 26/119/34 27/100/19 118/101/74
f 34/113/42 35/102/27 56/103/59
f 38/116/40 39/104/43 52/105/54
f 42/117/46 43/106/35 104/107/119
f 46/120/24 47/108/47 100/109/116
f 30/114/32 31/110/38 116/111/56
f 22/115/26 23/112/30 114/56/61
f 39/104/43 34/113/42 56/103/59 52/105/54
f 30/114/32 116/111/56 114/56/61 23/112/30
f 35/102/27 22/115/26 114/56/61 56/103/59
f 31/110/38 38/116/40 52/105/54 116/111/56
f 47/108/47 42/117/46 104/107/119 100/109/116
f 27/100/19 18/118/18 120/99/93 118/101/74
f 43/106/35 26/119/34 118/101/74 104/107/119
f 19/98/22 46/120/24 100/109/116 120/99/93
