# This file uses centimeters as units for non-parametric coordinates.

v 25.980774 15.000002 0.000000
v 15.000000 25.980761 0.000000
v 0.000000 30.000002 0.000000
v -15.000000 25.980761 0.000000
v -25.980774 15.000002 0.000000
v -30.000000 0.000000 0.000000
v -25.980774 -15.000001 0.000000
v -15.000000 -25.980761 0.000000
v 0.000000 -30.000000 0.000000
v 15.000000 -25.980761 0.000000
v 25.980774 -15.000001 0.000000
v 30.000000 0.000000 0.000000
v 25.980774 255.000000 -330.000000
v 15.000000 265.980774 -330.000000
v 0.000000 270.000000 -330.000000
v -15.000000 265.980774 -330.000000
v -25.980774 255.000000 -330.000000
v -30.000000 240.000000 -330.000000
v -25.980774 225.000000 -330.000000
v -15.000000 214.019241 -330.000000
v 0.000000 210.000000 -330.000000
v 15.000000 214.019241 -330.000000
v 25.980774 225.000000 -330.000000
v 30.000000 240.000000 -330.000000
v 25.980774 15.000002 -24.128693
v 25.980774 19.418623 -34.970947
v 15.000000 25.980761 -24.000610
v 15.000000 30.026808 -34.551788
v 0.000000 30.000002 -24.087006
v 0.000000 33.987770 -34.486237
v -15.000000 25.980761 -24.000610
v -15.000000 30.026808 -34.551788
v -25.980774 15.000002 -24.128693
v -25.980774 19.418623 -34.970947
v -30.000000 0.000000 -24.419525
v -30.000000 4.834135 -35.438416
v -25.980774 -15.000001 -24.128693
v -25.980774 -10.581381 -34.970947
v -15.000000 -25.980761 -24.000610
v -15.000000 -21.934715 -34.551788
v 0.000000 -30.000000 -24.087006
v 0.000000 -26.012232 -34.486237
v 15.000000 -25.980761 -24.000610
v 15.000000 -21.934715 -34.551788
v 25.980774 -15.000001 -24.128693
v 25.980774 -10.581381 -34.970947
v 30.000000 0.000000 -24.419525
v 30.000000 4.834135 -35.438416
v 25.980774 255.000000 -305.871338
v 25.980774 250.581390 -295.029053
v 15.000000 265.980774 -305.999390
v 15.000000 261.934723 -295.448181
v 0.000000 270.000000 -305.912964
v 0.000000 266.012238 -295.513733
v -15.000000 265.980774 -305.999390
v -15.000000 261.934723 -295.448181
v -25.980774 255.000000 -305.871338
v -25.980774 250.581390 -295.029053
v -30.000000 240.000000 -305.580444
v -30.000000 235.165863 -294.561584
v -25.980774 225.000000 -305.871338
v -25.980774 220.581375 -295.029053
v -15.000000 214.019241 -305.999390
v -15.000000 209.973190 -295.448181
v 0.000000 210.000000 -305.912964
v 0.000000 206.012238 -295.513733
v 15.000000 214.019241 -305.999390
v 15.000000 209.973190 -295.448181
v 25.980774 225.000000 -305.871338
v 25.980774 220.581375 -295.029053
v 30.000000 240.000000 -305.580444
v 30.000000 235.165863 -294.561584
vt 0.524992 0.518891
vt 0.524992 0.509061
vt 0.524992 0.217936
vt 0.524992 0.226595
vt 0.536476 0.518891
vt 0.524992 0.537831
vt 0.548300 0.518891
vt 0.536476 0.537831
vt 0.560124 0.518891
vt 0.548300 0.537831
vt 0.571607 0.518891
vt 0.560124 0.537831
vt 0.582531 0.528522
vt 0.571607 0.537831
vt 0.593181 0.539614
vt 0.582531 0.546094
vt 0.604241 0.539614
vt 0.593181 0.557544
vt 0.480877 0.539606
vt 0.604241 0.557544
vt 0.492356 0.539606
vt 0.480877 0.557537
vt 0.503416 0.539606
vt 0.492356 0.557537
vt 0.514068 0.528517
vt 0.503416 0.557537
vt 0.514068 0.546090
vt 0.524992 0.202463
vt 0.536476 0.202463
vt 0.548300 0.202463
vt 0.536476 0.217936
vt 0.560124 0.202463
vt 0.548300 0.217936
vt 0.571607 0.202463
vt 0.560124 0.217936
vt 0.582531 0.202463
vt 0.571607 0.217936
vt 0.593181 0.221120
vt 0.582531 0.227219
vt 0.604241 0.221120
vt 0.593181 0.239143
vt 0.615719 0.221120
vt 0.604241 0.239143
vt 0.492356 0.221111
vt 0.615719 0.239143
vt 0.503416 0.221111
vt 0.492356 0.239135
vt 0.514068 0.202463
vt 0.503416 0.239135
vt 0.514068 0.227214
vt 0.536476 0.226595
vt 0.514068 0.518941
vt 0.503416 0.530335
vt 0.514068 0.237287
vt 0.492356 0.530335
vt 0.503416 0.248370
vt 0.615719 0.530343
vt 0.492356 0.248370
vt 0.604241 0.530343
vt 0.480877 0.248370
vt 0.593181 0.530343
vt 0.604241 0.248378
vt 0.582531 0.518946
vt 0.593181 0.248378
vt 0.571607 0.509061
vt 0.582531 0.237291
vt 0.560124 0.509061
vt 0.571607 0.226595
vt 0.548300 0.509061
vt 0.560124 0.226595
vt 0.536476 0.509061
vt 0.548300 0.226595
vt 0.480877 0.530335
vt 0.615719 0.248378
vt 0.480877 0.221111
vt 0.480877 0.239135
vt 0.615719 0.539614
vt 0.615719 0.557544
vn 0.873774 0.482878 0.057864
vn 0.849071 0.399263 0.345931
vn 0.434722 0.679093 0.591481
vn 0.504968 0.856878 0.103764
vn 0.999735 -0.021193 -0.008970
vn 0.989375 -0.108046 -0.097281
vn 0.000000 0.753641 0.657287
vn 0.000000 0.992685 0.120737
vn -0.434722 0.679093 0.591481
vn -0.504968 0.856878 0.103764
vn -0.849071 0.399263 0.345931
vn -0.873774 0.482878 0.057864
vn -0.989375 -0.108046 -0.097281
vn -0.999735 -0.021193 -0.008970
vn -0.718860 -0.523720 -0.457118
vn -0.857147 -0.510849 -0.065828
vn -0.351634 -0.707280 -0.613277
vn -0.491197 -0.865368 -0.099316
vn 0.000000 -0.756054 -0.654509
vn 0.000000 -0.993781 -0.111355
vn 0.351634 -0.707280 -0.613277
vn 0.491197 -0.865368 -0.099316
vn 0.718860 -0.523720 -0.457118
vn 0.857147 -0.510849 -0.065828
vn 0.857147 0.510849 0.065827
vn 0.718861 0.523719 0.457118
vn 0.989375 0.108046 0.097281
vn 0.999735 0.021193 0.008970
vn 0.491197 0.865368 0.099316
vn 0.351634 0.707280 0.613277
vn -0.000000 0.993781 0.111355
vn -0.000000 0.756054 0.654509
vn -0.491197 0.865368 0.099316
vn -0.351634 0.707280 0.613277
vn -0.857147 0.510849 0.065827
vn -0.718861 0.523719 0.457118
vn -0.999735 0.021193 0.008970
vn -0.989375 0.108046 0.097281
vn -0.873774 -0.482878 -0.057864
vn -0.849071 -0.399263 -0.345931
vn -0.504968 -0.856878 -0.103764
vn -0.434722 -0.679093 -0.591481
vn 0.000000 -0.992685 -0.120737
vn 0.000000 -0.753641 -0.657287
vn 0.504968 -0.856878 -0.103764
vn 0.434722 -0.679093 -0.591481
vn 0.873774 -0.482878 -0.057864
vn 0.849071 -0.399263 -0.345931
vn 0.500100 0.865968 0.000000
vn 0.866605 0.498994 0.000000
vn 0.000000 1.000000 0.000000
vn -0.500100 0.865968 0.000000
vn -0.866605 0.498994 0.000000
vn -1.000000 -0.000000 0.000000
vn -0.866605 -0.498994 0.000000
vn -0.500100 -0.865968 0.000000
vn 0.000000 -1.000000 0.000000
vn 0.500100 -0.865968 0.000000
vn 0.866605 -0.498994 0.000000
vn 1.000000 -0.000000 0.000000
vn 0.866606 0.498994 0.000000
vn 0.500100 0.865968 0.000000
vn 0.000000 1.000000 0.000000
vn -0.500100 0.865968 0.000000
vn -0.866606 0.498994 0.000000
vn -1.000000 0.000000 0.000000
vn -0.866606 -0.498994 0.000000
vn -0.500100 -0.865968 0.000000
vn 0.000000 -1.000000 0.000000
vn 0.500100 -0.865968 0.000000
vn 0.866606 -0.498994 0.000000
vn 1.000000 0.000000 0.000000
s 1
f 25/1/1 26/2/2 28/71/3 27/5/4
f 26/2/2 25/1/1 47/25/5 48/52/6
f 27/5/4 28/71/3 30/69/7 29/7/8
f 29/7/8 30/69/7 32/67/9 31/9/10
f 31/9/10 32/67/9 34/65/11 33/11/12
f 33/11/12 34/65/11 36/63/13 35/13/14
f 35/13/14 36/63/13 38/61/15 37/15/16
f 37/15/16 38/61/15 40/59/17 39/17/18
f 39/17/18 40/59/17 42/57/19 41/77/20
f 41/19/20 42/73/19 44/55/21 43/21/22
f 43/21/22 44/55/21 46/53/23 45/23/24
f 45/23/24 46/53/23 48/52/6 47/25/5
f 49/3/25 50/4/26 72/54/27 71/50/28
f 50/4/26 49/3/25 51/31/29 52/51/30
f 52/51/30 51/31/29 53/33/31 54/72/32
f 54/72/32 53/33/31 55/35/33 56/70/34
f 56/70/34 55/35/33 57/37/35 58/68/36
f 58/68/36 57/37/35 59/39/37 60/66/38
f 60/66/38 59/39/37 61/41/39 62/64/40
f 62/64/40 61/41/39 63/43/41 64/62/42
f 64/62/42 63/43/41 65/45/43 66/74/44
f 66/60/44 65/76/43 67/47/45 68/58/46
f 68/58/46 67/47/45 69/49/47 70/56/48
f 70/56/48 69/49/47 71/50/28 72/54/27
f 25/1/1 27/5/4 2/8/49 1/6/50
f 27/5/4 29/7/8 3/10/51 2/8/49
f 29/7/8 31/9/10 4/12/52 3/10/51
f 31/9/10 33/11/12 5/14/53 4/12/52
f 33/11/12 35/13/14 6/16/54 5/14/53
f 35/13/14 37/15/16 7/18/55 6/16/54
f 37/15/16 39/17/18 8/20/56 7/18/55
f 39/17/18 41/77/20 9/78/57 8/20/56
f 41/19/20 43/21/22 10/24/58 9/22/57
f 43/21/22 45/23/24 11/26/59 10/24/58
f 45/23/24 47/25/5 12/27/60 11/26/59
f 47/25/5 25/1/1 1/6/50 12/27/60
f 13/28/61 14/29/62 51/31/29 49/3/25
f 14/29/62 15/30/63 53/33/31 51/31/29
f 15/30/63 16/32/64 55/35/33 53/33/31
f 16/32/64 17/34/65 57/37/35 55/35/33
f 17/34/65 18/36/66 59/39/37 57/37/35
f 18/36/66 19/38/67 61/41/39 59/39/37
f 19/38/67 20/40/68 63/43/41 61/41/39
f 20/40/68 21/42/69 65/45/43 63/43/41
f 21/75/69 22/44/70 67/47/45 65/76/43
f 22/44/70 23/46/71 69/49/47 67/47/45
f 23/46/71 24/48/72 71/50/28 69/49/47
f 24/48/72 13/28/61 49/3/25 71/50/28
f 28/71/3 26/2/2 50/4/26 52/51/30
f 26/2/2 48/52/6 72/54/27 50/4/26
f 48/52/6 46/53/23 70/56/48 72/54/27
f 46/53/23 44/55/21 68/58/46 70/56/48
f 44/55/21 42/73/19 66/60/44 68/58/46
f 42/57/19 40/59/17 64/62/42 66/74/44
f 40/59/17 38/61/15 62/64/40 64/62/42
f 38/61/15 36/63/13 60/66/38 62/64/40
f 36/63/13 34/65/11 58/68/36 60/66/38
f 34/65/11 32/67/9 56/70/34 58/68/36
f 32/67/9 30/69/7 54/72/32 56/70/34
f 30/69/7 28/71/3 52/51/30 54/72/32
