# This file uses centimeters as units for non-parametric coordinates.

v 0.000000 0.000000 98.999817
v -79.499939 66.327881 960.099976
v -79.500000 90.000000 98.999939
v -79.500000 29.900024 98.999878
v -79.499939 29.900024 960.099976
v -79.499878 270.099976 95.523987
v -79.499878 270.099976 29.899841
v -79.499878 90.000000 29.899841
v -79.499878 29.900024 29.899780
v -0.000122 90.000000 98.999878
v -105.000000 22.250793 98.999939
v -102.759521 27.659607 98.999939
v -97.350708 29.900024 98.999939
v -104.999939 22.250793 967.749146
v -102.759460 27.659607 962.340332
v -97.350647 29.900024 960.099976
v -104.999939 72.383850 967.749146
v -102.759460 68.101624 962.340332
v -97.350647 66.327881 960.099976
v -105.000000 277.749207 96.413147
v -102.759521 272.340393 95.784424
v -97.350830 270.099976 95.523987
v -105.000000 277.749207 22.250671
v -102.759399 272.340393 27.659363
v -97.350830 270.099976 29.899841
v -105.000000 90.000000 22.250671
v -102.759399 90.000000 27.659363
v -97.350830 90.000000 29.899841
v -105.000000 22.250793 22.250610
v -102.759644 27.659607 27.659424
v -97.350830 29.900024 29.899780
v -6.714844 91.389282 984.105347
v -6.755188 83.907532 990.000000
v 0.000000 84.813843 983.449341
v -6.674438 300.000000 98.999817
v 0.000122 293.325439 98.223877
v -98.285156 83.943909 989.999878
v -98.244812 91.397644 984.069946
v -105.000000 84.813843 983.449341
v -98.325562 300.000000 98.999939
v -104.999878 293.325439 98.223999
v -98.325439 0.000000 989.999878
v -104.999939 6.674561 983.325317
v -98.325562 0.000000 98.999939
v -105.000000 6.674561 98.999939
v -6.674438 0.000000 989.999878
v 0.000000 0.000000 983.325439
v 0.000000 0.000000 6.674438
v -6.674561 0.000000 -0.000122
v -6.674561 90.000000 -0.000122
v 0.000000 90.000000 6.674438
v 0.000000 293.325439 6.674438
v -6.674561 293.325439 -0.000122
v -6.674438 300.000000 6.674438
v -98.325439 300.000000 6.674377
v -98.325562 293.325439 -0.000122
v -104.999878 293.325439 6.674377
v -98.325562 90.000000 -0.000122
v -104.999878 90.000000 6.674377
v -98.325562 0.000000 -0.000122
v -104.999878 6.674561 6.674438
vt 0.184261 0.018793
vt 0.041620 0.227073
vt 0.041671 0.018351
vt 0.049939 0.018039
vt 0.038243 0.016065
vt 0.052813 0.015052
vt 0.105762 0.226053
vt 0.101352 0.226436
vt 0.103165 0.244189
vt 0.056653 0.247719
vt 0.100562 0.241158
vt 0.040707 0.245651
vt 0.056654 0.243327
vt 0.037181 0.227339
vt 0.043230 0.242701
vt 0.034286 0.227460
vt 0.108664 0.225828
vt 0.035731 0.227404
vt 0.037009 0.014905
vt 0.053802 0.013785
vt 0.107208 0.225927
vt 0.104288 0.245380
vt 0.056657 0.249129
vt 0.039610 0.246840
vt 0.141751 0.236461
vt 0.137002 0.023756
vt 0.010552 0.239181
vt 0.057590 0.005760
vt 0.010552 0.241112
vt 0.010552 0.255954
vt 0.008969 0.255954
vt 0.131627 0.003024
vt 0.057796 0.008065
vt 0.031778 0.009194
vt 0.026294 0.239181
vt 0.112551 0.225548
vt 0.026294 0.056875
vt 0.029498 0.007060
vt 0.030433 0.227591
vt 0.065202 0.020244
vt 0.085583 0.014961
vt 0.010552 0.055284
vt 0.026293 0.055284
vt 0.056729 0.254310
vt 0.026294 0.008066
vt 0.034730 0.252284
vt 0.010552 0.073667
vt 0.028090 0.227642
vt 0.010552 0.008066
vt 0.026293 0.022442
vt 0.010552 0.022442
vt 0.026294 0.073667
vt 0.010552 0.056875
vt 0.091003 0.035868
vt 0.070622 0.041152
vt 0.035614 0.013349
vt 0.054854 0.012231
vt 0.109688 0.250465
vt 0.105736 0.246743
vt 0.056669 0.250529
vt 0.038301 0.248298
vt 0.032729 0.254479
vt 0.198352 0.002568
vt 0.198364 0.018783
vt 0.184249 0.002578
vt 0.141986 0.002608
vt 0.141997 0.018008
vt 0.189960 0.220860
vt 0.198508 0.220854
vt 0.056790 0.256646
vt 0.110075 0.252768
vt 0.112000 0.250821
vt 0.114894 0.225306
vt 0.060049 0.007503
vt 0.026293 0.255954
vt 0.026293 0.241112
vt 0.008969 0.056875
vt 0.008969 0.022442
vt 0.008969 0.008066
vt 0.008969 0.073667
vt 0.122538 0.241412
vt 0.008969 0.240180
vn -1.000000 -0.000000 0.000000
vn -1.000000 0.000000 -0.000000
vn -1.000000 -0.000000 -0.000000
vn -1.000000 -0.000000 0.000000
vn -1.000000 0.000001 -0.000000
vn -1.000000 0.000000 -0.000001
vn -1.000000 0.000000 -0.000001
vn -1.000000 0.000000 -0.000002
vn -0.096054 0.995376 0.000000
vn -0.112036 0.993704 0.000000
vn 0.000000 1.000000 0.000000
vn 0.000000 1.000000 -0.000000
vn -0.116296 0.000000 -0.993215
vn -0.113232 0.000000 -0.993569
vn 0.000000 0.000000 -1.000000
vn 0.000000 0.000000 -1.000000
vn -0.109026 -0.967529 -0.228037
vn -0.098270 -0.972121 -0.212892
vn 0.000000 -0.976836 -0.213988
vn 0.000000 -0.973331 -0.229405
vn -0.113458 -0.993543 -0.000000
vn 0.000000 -1.000000 0.000000
vn -0.112436 0.000000 0.993659
vn -0.096559 -0.000000 0.995327
vn 0.000000 -0.000000 1.000000
vn 0.000000 0.000000 1.000000
vn -0.113424 -0.000001 0.993547
vn 0.000000 -0.000001 1.000000
vn -0.113230 0.993569 0.000000
vn 0.000000 1.000000 -0.000000
vn -0.994530 0.104450 0.000000
vn -0.708300 0.705912 0.000000
vn -0.882342 0.354196 0.309867
vn -0.999607 0.021059 0.018497
vn -0.807234 0.589553 -0.028301
vn -0.999139 0.041434 -0.002167
vn -0.791741 -0.587724 -0.166512
vn -0.998789 -0.047283 -0.013608
vn -0.722577 -0.675358 -0.147561
vn -0.995621 -0.091340 -0.019899
vn -0.861365 -0.178760 0.475494
vn -0.999480 -0.011567 0.030087
vn -0.711640 0.000000 0.702544
vn -0.994987 0.000000 0.100000
vn 0.070410 0.969498 0.234768
vn 0.998145 0.057753 0.019250
vn 0.997637 0.067188 0.014347
vn 0.064042 0.975968 0.208292
vn 0.067099 0.061483 0.995850
vn -0.070493 0.969487 0.234789
vn -0.064706 0.061452 0.996010
vn 0.067504 -0.000019 0.997719
vn 0.999974 -0.000001 0.007264
vn 0.997348 0.030312 -0.066170
vn 0.064511 0.995842 -0.064314
vn -0.929423 0.350482 0.115478
vn -0.891780 -0.450585 0.041245
vn -0.040665 -0.000022 0.999173
vn -0.064032 0.975967 0.208296
vn -0.949022 0.308257 0.065846
vn -0.064511 0.995842 -0.064315
vn -0.939898 0.142210 -0.310433
vn -0.707111 -0.707102 0.000000
vn -0.956555 -0.291552 0.000000
vn -0.707112 -0.707102 0.000000
vn -0.925966 -0.279848 -0.253518
vn -0.707117 -0.707097 -0.000000
vn 0.997735 0.000001 -0.067267
vn 0.067726 0.000000 -0.997704
vn 0.067726 0.000000 -0.997704
vn 0.997723 -0.000000 -0.067449
vn 0.066362 0.030308 -0.997335
vn -0.066362 0.030308 -0.997335
vn -0.067010 -0.000000 -0.997752
vn -0.953986 -0.000000 -0.299852
vn -0.040869 -0.000000 -0.999165
vn 1.000000 -0.000000 -0.000000
vn 1.000000 0.000001 0.000000
s 1
f 2/68/1 3/1/2 4/64/3 5/69/4
f 2/68/1 6/67/5 3/1/2
f 3/1/2 6/67/5 7/66/6 8/65/7
f 4/64/3 3/1/2 8/65/7 9/63/8
s 2
f 13/14/9 16/5/10 5/3/11 4/2/12
f 16/5/13 19/6/14 2/4/15 5/3/16
f 19/6/17 22/7/18 6/8/19 2/4/20
f 22/7/18 25/9/21 7/11/22 6/8/19
f 25/9/23 28/10/24 8/13/25 7/11/26
f 28/10/24 31/12/27 9/15/28 8/13/25
f 31/12/29 13/14/9 4/2/12 9/15/30
f 11/16/31 12/18/32 30/24/33 29/61/34
f 12/18/32 13/14/9 31/12/29 30/24/33
f 13/14/9 12/18/32 15/19/35 16/5/10
f 12/18/32 11/16/31 14/56/36 15/19/35
f 16/5/13 15/19/35 18/20/37 19/6/14
f 15/19/35 14/56/36 17/57/38 18/20/37
f 19/6/17 18/20/37 21/21/39 22/7/18
f 18/20/37 17/57/38 20/17/40 21/21/39
f 22/7/18 21/21/39 24/22/41 25/9/21
f 21/21/39 20/17/40 23/59/42 24/22/41
f 25/9/23 24/22/41 27/23/43 28/10/24
f 24/22/41 23/59/42 26/60/44 27/23/43
f 28/10/24 27/23/43 30/24/33 31/12/27
f 27/23/43 26/60/44 29/61/34 30/24/33
f 32/27/45 34/82/46 36/80/47 35/47/48
f 33/29/49 32/27/45 38/35/50 37/76/51
f 34/82/46 33/29/49 46/30/52 47/31/53
f 35/47/48 36/80/47 52/77/54 54/53/55
f 37/28/51 39/33/56 43/34/57 42/38/58
f 39/33/56 38/74/50 40/73/59 41/36/60
f 41/36/60 40/73/59 55/72/61 57/58/62
f 42/38/63 43/34/57 45/39/64 44/48/65
f 44/48/65 45/39/64 61/46/66 60/62/67
f 48/79/68 49/49/69 50/51/70 51/78/71
f 51/78/71 50/51/70 53/42/72 52/77/54
f 54/53/55 53/42/72 56/43/73 55/37/61
f 57/58/62 56/71/73 58/70/74 59/44/75
f 59/44/75 58/70/74 60/62/76 61/46/66
f 32/27/45 35/47/48 40/52/59 38/35/50
f 50/51/70 49/49/69 60/45/76 58/50/74
f 42/75/58 46/30/52 33/29/49 37/76/51
f 50/51/70 58/50/74 56/43/73 53/42/72
f 40/52/59 35/47/48 54/53/55 55/37/61
f 36/26/47 34/25/46 10/54/77
f 10/54/77 34/25/46 47/81/53 1/55/78
f 10/54/77 1/55/78 48/40/68 51/41/71
f 51/41/71 52/32/54 36/26/47 10/54/77
f 45/39/64 43/34/57 14/56/36 11/16/31
f 43/34/57 39/33/56 17/57/38 14/56/36
f 39/33/56 41/36/60 20/17/40 17/57/38
f 41/36/60 57/58/62 23/59/42 20/17/40
f 57/58/62 59/44/75 26/60/44 23/59/42
f 59/44/75 61/46/66 29/61/34 26/60/44
f 61/46/66 45/39/64 11/16/31 29/61/34
f 32/27/45 33/29/49 34/82/46
f 37/28/51 38/74/50 39/33/56
f 52/77/54 53/42/72 54/53/55
f 55/72/61 56/71/73 57/58/62
