# This file uses centimeters as units for non-parametric coordinates.

v 51.961487 283.656921 29.999725
v 30.000549 283.656921 51.961517
v 0.000549 283.655945 59.999969
v -29.999451 283.655945 51.961639
v -51.961365 283.655945 30.000214
v -59.999939 283.655945 0.000214
v -51.961365 283.655945 -29.999786
v -30.000427 283.655945 -51.961456
v -0.000427 283.655945 -60.000031
v 29.999573 283.656921 -51.961823
v 51.961487 283.656921 -30.000275
v 60.000061 283.656921 -0.000519
v 51.960999 -0.000060 29.999176
v 60.000061 -0.000060 -0.000549
v 51.960999 -0.000060 -29.999954
v 29.999817 -0.000068 -51.959961
v 0.000305 -0.000800 -59.998489
v -30.001404 -0.000796 -51.962418
v -51.962341 -0.000794 -30.000702
v -59.999939 -0.000796 0.000259
v -51.962097 -0.000794 30.000854
v -29.999939 -0.000796 51.961395
v 0.001526 -0.000800 59.996643
v 30.000793 -0.000068 51.958588
vt 0.199655 0.993513
vt 0.168046 0.993513
vt 0.168046 0.704825
vt 0.199655 0.704825
vt 0.136438 0.993513
vt 0.136438 0.704825
vt 0.104829 0.993513
vt 0.104829 0.704825
vt 0.073220 0.993513
vt 0.073220 0.704825
vt 0.041610 0.993513
vt 0.041610 0.704825
vt 0.010001 0.993513
vt 0.010001 0.704825
vt 0.389310 0.993513
vt 0.357700 0.993513
vt 0.357700 0.704825
vt 0.389310 0.704825
vt 0.326091 0.993513
vt 0.326091 0.704825
vt 0.294482 0.993513
vt 0.294482 0.704825
vt 0.262873 0.993513
vt 0.262873 0.704825
vt 0.231264 0.993513
vt 0.231264 0.704825
vn 1.000000 -0.000001 0.000000
vn 0.866026 -0.000003 0.499999
vn 0.866026 -0.000003 0.499999
vn 1.000000 -0.000001 -0.000000
vn 0.499997 -0.000008 0.866027
vn 0.499994 -0.000008 0.866029
vn 0.000027 -0.000008 1.000000
vn 0.000023 -0.000008 1.000000
vn -0.499963 -0.000002 0.866047
vn -0.499963 -0.000002 0.866047
vn -0.866023 0.000002 0.500005
vn -0.866023 0.000002 0.500005
vn -1.000000 0.000002 0.000002
vn -1.000000 0.000002 0.000002
vn -0.866035 0.000004 -0.499983
vn -0.866035 0.000004 -0.499983
vn -0.499986 0.000002 -0.866034
vn -0.499986 0.000002 -0.866034
vn 0.000020 -0.000003 -1.000000
vn 0.000016 -0.000003 -1.000000
vn 0.499993 -0.000004 -0.866030
vn 0.499990 -0.000004 -0.866031
vn 0.866018 -0.000002 -0.500013
vn 0.866018 -0.000002 -0.500013
s 1
f 12/1/1 1/2/2 13/3/3 14/4/4
f 1/2/2 2/5/5 24/6/6 13/3/3
f 2/5/5 3/7/7 23/8/8 24/6/6
f 3/7/7 4/9/9 22/10/10 23/8/8
f 4/9/9 5/11/11 21/12/12 22/10/10
f 5/11/11 6/13/13 20/14/14 21/12/12
f 6/15/13 7/16/15 19/17/16 20/18/14
f 7/16/15 8/19/17 18/20/18 19/17/16
f 8/19/17 9/21/19 17/22/20 18/20/18
f 9/21/19 10/23/21 16/24/22 17/22/20
f 10/23/21 11/25/23 15/26/24 16/24/22
f 11/25/23 12/1/1 14/4/4 15/26/24
