# This file uses centimeters as units for non-parametric coordinates.

v 154.378296 -89.663498 120.000031
v 147.826172 -83.493454 120.000031
v 8.764404 -244.293274 120.000031
v 2.212280 -238.123215 120.000031
v 8.764404 -244.293274 111.000031
v 2.212280 -238.123215 111.000031
v 154.378296 -89.663498 111.000031
v 147.826172 -83.493454 111.000031
v 145.000000 -89.999954 120.000031
v 154.000000 -89.999954 120.000031
v 145.000000 0.000061 120.000031
v 154.000000 0.000061 120.000031
v 145.000000 0.000061 111.000031
v 154.000000 0.000061 111.000031
v 145.000000 -89.999954 111.000031
v 154.000000 -89.999954 111.000031
v 154.378296 -89.663498 -110.999969
v 147.826172 -83.493454 -110.999969
v 8.764404 -244.293274 -110.999969
v 2.212280 -238.123215 -110.999969
v 8.764404 -244.293274 -119.999969
v 2.212280 -238.123215 -119.999969
v 154.378296 -89.663498 -119.999969
v 147.826172 -83.493454 -119.999969
v 145.000000 -89.999954 -110.999969
v 154.000000 -89.999954 -110.999969
v 145.000000 0.000061 -110.999969
v 154.000000 0.000061 -110.999969
v 145.000000 0.000061 -119.999969
v 154.000000 0.000061 -119.999969
v 145.000000 -89.999954 -119.999969
v 154.000000 -89.999954 -119.999969
v 0.000000 -244.499954 -119.999969
v 9.000000 -244.499954 -119.999969
v 0.000000 -244.499954 120.000031
v 9.000000 -244.499954 120.000031
v 0.000000 -235.499954 120.000031
v 9.000000 -235.499954 120.000031
v 0.000000 -235.499954 -119.999969
v 9.000000 -235.499954 -119.999969
vt 0.248059 0.197243
vt 0.261836 0.197243
vt 0.248059 0.522364
vt 0.261836 0.522364
vt 0.234283 0.522364
vt 0.220507 0.522364
vt 0.234283 0.197243
vt 0.275612 0.197243
vt 0.356598 0.363403
vt 0.370375 0.363403
vt 0.370375 0.501170
vt 0.356598 0.501170
vt 0.384152 0.501170
vt 0.342822 0.501170
vt 0.384152 0.363403
vt 0.397928 0.363403
vt 0.350499 0.162940
vt 0.364275 0.162940
vt 0.309169 0.488067
vt 0.350499 0.488067
vt 0.322945 0.488067
vt 0.336722 0.488067
vt 0.322945 0.162940
vt 0.336722 0.162940
vt 0.203032 0.373030
vt 0.244363 0.373030
vt 0.244363 0.235263
vt 0.258139 0.235263
vt 0.230586 0.235263
vt 0.216809 0.235263
vt 0.230586 0.373030
vt 0.216809 0.373030
vt 0.292528 0.178704
vt 0.306305 0.178704
vt 0.306305 0.546080
vt 0.292528 0.546080
vt 0.320082 0.546080
vt 0.278752 0.546080
vt 0.320082 0.178704
vt 0.333858 0.178704
vt 0.258139 0.373030
vt 0.203032 0.235263
vt 0.309169 0.162940
vt 0.364275 0.488067
vt 0.397928 0.501170
vt 0.342822 0.363403
vt 0.275612 0.522364
vt 0.220507 0.197243
vt 0.333858 0.546080
vt 0.278752 0.178704
vn 0.000000 0.000000 1.000000
vn 0.000000 0.000000 1.000000
vn 0.000000 0.000000 1.000000
vn 0.000000 0.000000 1.000000
vn 0.000000 0.000000 -1.000000
vn 0.000000 0.000000 -1.000000
vn 0.000000 0.000000 -1.000000
vn 0.000000 0.000000 -1.000000
vn -0.728012 0.685564 0.000000
vn -0.728012 0.685564 0.000000
vn -0.728012 0.685564 0.000000
vn -0.728012 0.685564 0.000000
vn 0.728012 -0.685564 0.000000
vn 0.728012 -0.685564 0.000000
vn 0.728012 -0.685564 0.000000
vn 0.728012 -0.685564 0.000000
vn 0.000000 0.000000 1.000000
vn 0.000000 0.000000 1.000000
vn 0.000000 0.000000 1.000000
vn 0.000000 0.000000 1.000000
vn 0.000000 0.000000 -1.000000
vn 0.000000 0.000000 -1.000000
vn 0.000000 0.000000 -1.000000
vn 0.000000 0.000000 -1.000000
vn 1.000000 0.000000 0.000000
vn 1.000000 0.000000 0.000000
vn 1.000000 0.000000 0.000000
vn 1.000000 0.000000 0.000000
vn -1.000000 0.000000 0.000000
vn -1.000000 0.000000 0.000000
vn -1.000000 0.000000 0.000000
vn -1.000000 0.000000 0.000000
vn 0.000000 0.000000 1.000000
vn 0.000000 0.000000 1.000000
vn 0.000000 0.000000 1.000000
vn 0.000000 0.000000 1.000000
vn 0.000000 0.000000 -1.000000
vn 0.000000 0.000000 -1.000000
vn 0.000000 0.000000 -1.000000
vn 0.000000 0.000000 -1.000000
vn -0.728012 0.685564 0.000000
vn -0.728012 0.685564 0.000000
vn -0.728012 0.685564 0.000000
vn -0.728012 0.685564 0.000000
vn 0.728012 -0.685564 0.000000
vn 0.728012 -0.685564 0.000000
vn 0.728012 -0.685564 0.000000
vn 0.728012 -0.685564 0.000000
vn 0.000000 0.000000 1.000000
vn 0.000000 0.000000 1.000000
vn 0.000000 0.000000 1.000000
vn 0.000000 0.000000 1.000000
vn 0.000000 0.000000 -1.000000
vn 0.000000 0.000000 -1.000000
vn 0.000000 0.000000 -1.000000
vn 0.000000 0.000000 -1.000000
vn 1.000000 0.000000 0.000000
vn 1.000000 0.000000 0.000000
vn 1.000000 0.000000 0.000000
vn 1.000000 0.000000 0.000000
vn -1.000000 0.000000 0.000000
vn -1.000000 0.000000 0.000000
vn -1.000000 0.000000 0.000000
vn -1.000000 0.000000 0.000000
vn 0.000000 -1.000000 0.000000
vn 0.000000 -1.000000 0.000000
vn 0.000000 -1.000000 0.000000
vn 0.000000 -1.000000 0.000000
vn 0.000000 1.000000 0.000000
vn 0.000000 1.000000 0.000000
vn 0.000000 1.000000 0.000000
vn 0.000000 1.000000 0.000000
vn 1.000000 0.000000 0.000000
vn 1.000000 0.000000 0.000000
vn 1.000000 0.000000 0.000000
vn 1.000000 0.000000 0.000000
vn -1.000000 0.000000 0.000000
vn -1.000000 0.000000 0.000000
vn -1.000000 0.000000 0.000000
vn -1.000000 0.000000 0.000000
s off
f 1/1/1 2/2/2 4/4/3 3/3/4
f 5/5/5 6/6/6 8/48/7 7/7/8
f 2/2/9 8/8/10 6/47/11 4/4/12
f 7/7/13 1/1/14 3/3/15 5/5/16
f 9/9/17 10/10/18 12/11/19 11/12/20
f 13/45/21 14/13/22 16/15/23 15/16/24
f 10/10/25 16/15/26 14/13/27 12/11/28
f 15/46/29 9/9/30 11/12/31 13/14/32
f 17/17/33 18/18/34 20/44/35 19/20/36
f 21/22/37 22/21/38 24/23/39 23/24/40
f 18/43/41 24/23/42 22/21/43 20/19/44
f 23/24/45 17/17/46 19/20/47 21/22/48
f 25/41/49 26/26/50 28/27/51 27/28/52
f 29/30/53 30/29/54 32/31/55 31/32/56
f 26/26/57 32/31/58 30/29/59 28/27/60
f 31/32/61 25/25/62 27/42/63 29/30/64
f 33/33/65 34/34/66 36/35/67 35/36/68
f 37/49/69 38/37/70 40/39/71 39/40/72
f 34/34/73 40/39/74 38/37/75 36/35/76
f 39/50/77 33/33/78 35/36/79 37/38/80
