# This file uses centimeters as units for non-parametric coordinates.

v 9.151933 -0.008514 -39.019466
v -9.151933 -0.008514 -39.019466
v -9.151933 -0.001276 27.480997
v 9.151933 -0.001276 27.480997
v -9.151933 -0.001276 21.554451
v 9.151933 -0.001276 21.554451
v -82.395996 -0.001276 34.320587
v -81.670830 -0.001276 39.695377
v 82.395996 -0.001276 34.320587
v 81.670830 -0.001276 39.695377
v -234.983109 48.692333 54.934128
v -176.237335 48.692333 38.989265
v -234.983109 283.675476 54.955612
v -176.237335 283.675476 38.989265
v -232.942108 281.252838 51.934952
v -176.237335 281.309296 36.384010
v -232.942108 51.114952 51.934952
v -176.237335 51.058483 36.384010
v 234.983109 48.692333 54.915428
v 234.983109 283.675476 54.915428
v 232.975662 281.292755 51.944176
v 232.975662 51.075069 51.944176
v 117.491554 48.692333 30.120274
v 176.237335 48.692333 38.989265
v 117.491554 283.675476 30.120274
v 176.237335 283.675476 38.989265
v 117.491554 281.309296 27.515022
v 176.237335 281.309296 36.384010
v 117.491554 51.058483 27.515022
v 176.237335 51.058483 36.384010
v -117.491554 48.692333 30.120274
v -117.491554 51.058483 27.515022
v -117.491554 281.309296 27.515022
v -117.491554 283.675476 30.120274
v 46.991924 48.692333 24.353775
v -46.991924 48.692333 24.353775
v 46.991928 51.058483 21.748522
v -46.991920 51.058483 21.748522
v 46.991924 283.675476 24.353775
v -46.991924 283.675476 24.353775
v 46.991928 281.309296 21.748522
v -46.991920 281.309296 21.748522
v -176.237335 281.309296 39.870533
v -176.237335 53.577984 39.870533
v -117.491554 53.577984 31.001530
v -117.491554 281.309296 31.001530
v 117.491554 281.309296 31.001530
v 117.491554 53.577984 31.001530
v 176.237335 53.577984 39.870533
v 176.237335 281.309296 39.870533
v -232.305206 53.636089 55.246803
v -232.349319 281.291138 55.258904
v 232.305206 53.636089 55.246803
v 232.305206 281.251251 55.246803
v 46.991928 53.577984 25.235041
v -46.991920 53.577984 25.235041
v 46.991928 281.309296 25.235041
v -46.991920 281.309296 25.235041
v -232.627686 53.040718 56.725536
v -232.305206 53.636086 56.293808
v -176.237335 53.064651 41.320789
v -176.357712 53.578106 41.026260
v -232.924805 281.812103 56.539948
v -232.349319 281.291138 56.203655
v -117.491554 53.062996 32.450920
v -117.558929 53.577984 32.145897
v -176.237335 281.868652 40.978630
v -176.409897 281.309235 40.779934
v -117.491554 281.870605 32.107498
v -117.587845 281.309296 31.897251
v 232.628174 53.039837 56.722916
v 232.305206 53.636086 56.291775
v 176.237335 53.064651 41.320789
v 176.358414 53.578110 41.022987
v 232.880188 281.771759 56.529488
v 232.305206 281.251251 56.192924
v 176.237335 281.863403 40.984425
v 176.408264 281.309113 40.787605
v 117.491554 53.062038 32.450409
v 117.559067 53.577984 32.144817
v 46.991924 53.061825 26.683796
v 47.015808 53.577984 26.374077
v 117.491554 281.868958 32.109314
v 117.587555 281.309296 31.899685
v 46.991924 281.870117 26.341564
v 47.025982 281.309296 26.124901
v -46.991924 53.062229 26.684013
v -47.015789 53.577984 26.374537
v -46.991924 281.870789 26.340799
v -47.026024 281.309296 26.123871
v 9.151937 116.080475 21.748531
v 8.307219 117.490303 21.748531
v 8.307215 12.287461 -56.982918
v 9.151933 12.006388 -56.138191
v -8.307211 117.490265 21.748531
v -9.151928 116.080452 21.748531
v -9.151933 12.006388 -56.138191
v -8.307215 12.287461 -56.982918
v 8.307220 93.991966 21.748531
v 9.151937 95.407394 21.748531
v 9.151933 11.586924 -40.593777
v 8.307215 12.287691 -39.019833
v -9.151928 95.407394 21.748531
v -8.307211 93.991966 21.748531
v -8.307215 12.287691 -39.019833
v -9.151933 11.586924 -40.593777
v 8.307215 -0.008738 -56.982536
v 9.151933 -0.008728 -56.137821
v -9.151933 -0.008728 -56.137821
v -8.307215 -0.008738 -56.982536
v -9.151933 5.760334 27.480835
v -9.222572 6.605035 26.636103
v 9.222572 6.605035 26.636103
v 9.151933 5.760334 27.480835
v -82.395905 5.761065 34.320484
v -81.450081 6.605785 35.013073
v -80.950317 6.605832 38.717300
v -81.670761 5.761136 39.695271
v 81.450081 6.605784 35.013073
v 82.395905 5.761064 34.320484
v 81.670761 5.761133 39.695271
v 80.950325 6.605829 38.717300
v -8.308512 6.604985 22.263416
v -9.151933 5.774343 21.554308
v 9.151933 5.774341 21.554308
v 8.308512 6.604983 22.263416
vt 0.819285 0.000029
vt 0.540843 0.355376
vt 0.466767 0.551595
vt 0.414642 0.545791
vt 0.489261 0.349582
vt 0.437136 0.343778
vt 0.403164 0.024614
vt 0.155939 0.516984
vt 0.242788 0.119076
vt 0.178433 0.314972
vt 0.208064 0.522789
vt 0.270124 0.529699
vt 0.230558 0.320776
vt 0.292618 0.327686
vt 0.375076 0.336868
vt 0.352582 0.538880
vt 0.038515 0.429388
vt 0.719513 0.011750
vt 0.193843 0.207992
vt 0.449560 0.027556
vt 0.993802 0.085867
vt 0.107742 0.332096
vt 0.568743 0.020960
vt 0.654767 0.015706
vt 0.070364 0.385112
vt 0.503976 0.024798
vt 0.157025 0.261400
vt 0.405433 0.030938
vt 0.249408 0.123436
vt 0.224276 0.162822
vt 0.817741 0.006554
vt 0.773848 0.008211
vt 0.244294 0.121420
vt 0.404530 0.027012
vt 0.001018 0.470734
vt 0.818156 0.002595
vt 0.994877 0.084756
vt 0.818030 0.005742
vt 0.006364 0.472136
vt 0.818123 0.005161
vt 0.248318 0.122393
vt 0.248856 0.122655
vt 0.404892 0.029597
vt 0.405061 0.030158
vt 0.033688 0.425690
vt 0.037088 0.428697
vt 0.065429 0.381498
vt 0.773956 0.006869
vt 0.773476 0.004452
vt 0.719542 0.010389
vt 0.223125 0.161731
vt 0.449517 0.023769
vt 0.188744 0.204612
vt 0.155744 0.260451
vt 0.192619 0.206972
vt 0.219168 0.159530
vt 0.503788 0.023449
vt 0.568546 0.017142
vt 0.503859 0.020988
vt 0.449304 0.026233
vt 0.068983 0.384319
vt 0.102741 0.328552
vt 0.719183 0.007956
vt 0.654722 0.014342
vt 0.151967 0.257932
vt 0.106409 0.331223
vt 0.568624 0.019600
vt 0.654502 0.011892
vt 0.069415 0.384662
vt 0.774095 0.007417
vt 0.223608 0.162001
vt 0.503752 0.024002
vt 0.037504 0.429062
vt 0.449226 0.026788
vt 0.156204 0.260756
vt 0.654779 0.014892
vt 0.193092 0.207259
vt 0.568633 0.020152
vt 0.106854 0.331549
vt 0.719643 0.010936
vt 0.180745 0.109986
vt 0.179299 0.109858
vt 0.108214 0.019773
vt 0.128796 0.087749
vt 0.135941 0.082054
vt 0.192469 0.099465
vt 0.120402 0.009839
vt 0.123968 0.098477
vt 0.133295 0.104853
vt 0.161664 0.105161
vt 0.148280 0.000000
vt 0.116023 0.081868
vt 0.192213 0.079782
vt 0.112135 0.099411
vt 0.110895 0.097990
vt 0.053143 0.084644
vt 0.048673 0.083301
vt 0.006466 0.128131
vt 0.052903 0.066422
vt 0.051680 0.066405
vt 0.039005 0.005696
vt 0.008826 0.130070
vt 0.043121 0.005674
vt 0.057342 0.067608
vt 0.040138 0.006311
vt 0.192258 0.100901
vt 0.160215 0.105031
vt 0.192002 0.081222
vt 0.136818 0.083611
vt 0.118667 0.071645
vt 0.047618 0.082666
vt 0.042849 0.079658
vt 0.131977 0.106112
vt 0.008972 0.131317
vt 0.008076 0.136379
vt 0.035508 0.001946
vt 0.110370 0.109713
vt 0.058362 0.066629
vt 0.062405 0.062782
vt 0.053547 0.085993
vt 0.055184 0.091463
vt 0.005118 0.128154
vt 0.000000 0.129023
vt 0.043855 0.004586
vt 0.046206 0.000020
vt 0.045905 0.066370
vt 0.711786 0.310112
vt 0.659104 0.343635
vt 0.551178 0.174024
vt 0.603860 0.140501
vt 0.834467 0.232049
vt 0.781784 0.265571
vt 0.673858 0.095961
vt 0.726541 0.062438
vt 0.921988 0.176297
vt 0.878715 0.203893
vt 0.814117 0.006772
vt 0.770789 0.034282
vt 0.571512 0.399352
vt 0.463656 0.229776
vt 0.614855 0.371791
vt 0.506929 0.202180
vt 0.007257 0.472478
vt 0.994205 0.084996
vt 0.005633 0.472082
vt 1.000000 0.084192
vt 0.568440 0.013920
vt 0.654213 0.008680
vt 0.100154 0.326629
vt 0.149266 0.256169
vt 0.718716 0.004766
vt 0.062967 0.379417
vt 0.185940 0.203023
vt 0.216270 0.158132
vt 0.449814 0.020559
vt 0.503944 0.017766
vt 0.126813 0.309239
vt 0.104323 0.511222
vt 0.031396 0.423424
vt 0.999478 0.080320
vt 0.000000 0.466864
vt 0.772818 0.001297
vt 0.518360 0.557289
vt 0.121383 0.009381
vt 0.135092 0.008659
vt 0.104324 0.032938
vt 0.128520 0.086744
vt 0.136739 0.009051
vt 0.104323 0.034631
vt 0.114420 0.082576
vt 0.108888 0.018925
vt 0.124574 0.097861
vt 0.203754 0.070730
vn -0.827661 0.000026 -0.561229
vn -0.313763 0.014332 -0.949393
vn -0.313809 -0.014274 -0.949379
vn -0.827661 0.000026 -0.561229
vn -0.184626 0.714330 -0.675015
vn -0.184626 0.714330 -0.675015
vn -0.206851 0.010637 -0.978315
vn -0.100984 0.736469 -0.668891
vn -0.100984 0.736469 -0.668891
vn -0.112493 0.011006 -0.993592
vn -0.184894 -0.712886 -0.676467
vn -0.206850 -0.010618 -0.978315
vn -0.184894 -0.712886 -0.676467
vn -0.100983 -0.736476 -0.668884
vn -0.112493 -0.011006 -0.993592
vn -0.100983 -0.736476 -0.668884
vn 0.184096 0.714631 -0.674842
vn 0.313210 0.014236 -0.949577
vn 0.206880 0.010595 -0.978309
vn 0.184096 0.714631 -0.674842
vn 0.828609 0.000000 -0.559828
vn 0.828609 0.000000 -0.559828
vn 0.313210 -0.014236 -0.949577
vn 0.184096 -0.714631 -0.674842
vn 0.184096 -0.714631 -0.674842
vn 0.206880 -0.010595 -0.978309
vn 0.054910 0.739136 -0.671315
vn 0.112493 0.011006 -0.993592
vn 0.035027 0.011010 -0.999326
vn 0.054909 0.739136 -0.671315
vn 0.100983 0.736470 -0.668891
vn 0.100984 0.736470 -0.668891
vn 0.112493 -0.011006 -0.993592
vn 0.054909 -0.739143 -0.671306
vn 0.054909 -0.739144 -0.671306
vn 0.035027 -0.011010 -0.999326
vn 0.100983 -0.736476 -0.668884
vn 0.100983 -0.736476 -0.668884
vn -0.054909 -0.739144 -0.671306
vn -0.035027 -0.011010 -0.999326
vn -0.054909 -0.739144 -0.671306
vn -0.054910 0.739136 -0.671315
vn -0.054910 0.739136 -0.671315
vn -0.035027 0.011010 -0.999326
vn 0.000000 -0.740260 -0.672321
vn 0.000000 -0.740260 -0.672321
vn 0.000000 0.740255 -0.672326
vn 0.000000 0.740256 -0.672326
vn 0.206614 -0.003703 0.978416
vn 0.206602 0.004638 0.978414
vn 0.112518 0.004906 0.993638
vn 0.112518 -0.003830 0.993642
vn -0.112518 -0.003843 0.993642
vn -0.112518 0.004901 0.993638
vn -0.206588 0.004630 0.978417
vn -0.206588 -0.003724 0.978421
vn 0.280280 0.005344 0.959904
vn 0.280289 -0.004449 0.959905
vn -0.280282 0.005331 0.959903
vn -0.280282 -0.004471 0.959907
vn 0.035036 0.004897 0.999374
vn -0.035036 0.004896 0.999374
vn -0.035036 -0.003830 0.999379
vn 0.035036 -0.003827 0.999379
vn 0.649937 0.000945 0.759987
vn 0.649937 0.000945 0.759987
vn 0.649937 0.000945 0.759987
vn 0.649937 0.000945 0.759987
vn 0.227614 0.504155 0.833079
vn 0.227614 0.504155 0.833078
vn 0.176167 0.511373 0.841108
vn 0.182164 0.510607 0.840295
vn 0.095409 0.516235 0.851116
vn 0.097338 0.516285 0.850867
vn 0.248307 -0.353909 0.901716
vn 0.248307 -0.353909 0.901716
vn 0.199575 -0.361078 0.910930
vn 0.185070 -0.363024 0.913216
vn 0.029618 0.515198 0.856560
vn 0.030431 0.515210 0.856524
vn 0.107106 -0.365601 0.924589
vn 0.102427 -0.365117 0.925310
vn 0.033682 -0.361460 0.931779
vn 0.031697 -0.361408 0.931869
vn -0.227410 0.505400 0.832379
vn -0.227410 0.505400 0.832379
vn -0.181939 0.512219 0.839363
vn -0.175958 0.513029 0.840143
vn -0.649789 0.000846 0.760114
vn -0.649789 0.000846 0.760114
vn -0.649789 0.000846 0.760115
vn -0.649789 0.000846 0.760114
vn -0.097258 0.517247 0.850292
vn -0.095334 0.517129 0.850582
vn -0.248437 -0.354057 0.901622
vn -0.248437 -0.354057 0.901622
vn -0.185180 -0.363077 0.913172
vn -0.199708 -0.361150 0.910872
vn -0.102414 -0.365103 0.925317
vn -0.107096 -0.365586 0.924596
vn -0.030446 0.515209 0.856524
vn -0.029633 0.515197 0.856560
vn -0.031678 -0.361407 0.931870
vn -0.033663 -0.361459 0.931780
vn 0.232495 -0.466318 0.853518
vn 0.232495 -0.466318 0.853518
vn 0.179395 -0.466980 0.865880
vn 0.185610 -0.466974 0.864572
vn -0.607475 -0.000108 0.794339
vn -0.607475 -0.000108 0.794339
vn -0.607475 -0.000108 0.794339
vn -0.607474 -0.000108 0.794339
vn 0.098389 -0.468246 0.878103
vn 0.100453 -0.468149 0.877921
vn 0.178056 0.735923 0.653233
vn 0.178056 0.735923 0.653233
vn 0.143740 0.736731 0.660732
vn 0.136192 0.736786 0.662267
vn 0.077152 0.738048 0.670323
vn 0.074660 0.738188 0.670451
vn -0.232179 -0.467559 0.852925
vn -0.232179 -0.467559 0.852925
vn -0.185458 -0.467631 0.864249
vn -0.179266 -0.467560 0.865593
vn 0.608864 -0.000000 0.793274
vn 0.608864 -0.000000 0.793274
vn 0.608864 -0.000000 0.793274
vn 0.608864 -0.000000 0.793274
vn -0.177716 0.735561 0.653734
vn -0.177716 0.735561 0.653734
vn -0.136223 0.736613 0.662454
vn -0.143735 0.736521 0.660967
vn -0.098390 -0.468246 0.878103
vn -0.100454 -0.468149 0.877921
vn -0.031346 -0.470298 0.881951
vn -0.030484 -0.470311 0.881974
vn -0.077167 0.738048 0.670321
vn -0.074674 0.738188 0.670449
vn -0.023045 0.740061 0.672145
vn -0.024080 0.740043 0.672129
vn 0.030487 -0.470311 0.881974
vn 0.031349 -0.470298 0.881951
vn 0.024071 0.740042 0.672130
vn 0.023036 0.740060 0.672146
vn 0.000591 1.000000 -0.000021
vn -0.000004 1.000000 -0.000026
vn -0.000002 -1.000000 -0.000040
vn 0.000197 -1.000000 -0.000039
vn 0.000004 1.000000 -0.000031
vn -0.000591 1.000000 -0.000026
vn -0.000630 -1.000000 -0.000043
vn 0.000007 -1.000000 -0.000058
vn 0.001037 0.999999 0.000004
vn 0.000323 -1.000000 -0.000034
vn 1.000000 0.000194 0.000000
vn 1.000000 0.000194 0.000000
vn -0.001037 1.000000 -0.000001
vn -1.000000 -0.000000 0.000000
vn -1.000000 -0.000000 0.000000
vn -0.001034 -1.000000 0.000000
vn 0.000000 1.000000 0.000001
vn 0.000000 1.000000 -0.000001
vn 0.000000 -1.000000 0.000003
vn 0.000000 -1.000000 -0.000012
vn 0.707108 0.423675 -0.566125
vn 0.707108 0.423675 -0.566125
vn 0.712661 0.390666 -0.582662
vn 0.712661 0.390666 -0.582662
vn 0.707103 -0.000022 -0.707110
vn 0.707103 -0.000022 -0.707110
vn -0.707107 0.423676 -0.566126
vn -0.707107 0.423676 -0.566126
vn -0.712660 0.390666 -0.582663
vn -0.712659 0.390666 -0.582663
vn -0.707103 -0.000022 -0.707110
vn -0.707103 -0.000022 -0.707110
vn 0.707106 -0.421995 0.567381
vn 0.707106 -0.421995 0.567381
vn 0.707106 -0.421995 0.567381
vn 0.707106 -0.421995 0.567381
vn 0.717020 0.694050 0.064630
vn 0.717020 0.694050 0.064630
vn 0.717020 0.694050 0.064630
vn 0.717020 0.694050 0.064630
vn -0.707106 -0.421995 0.567381
vn -0.707106 -0.421995 0.567381
vn -0.707106 -0.421995 0.567381
vn -0.707106 -0.421995 0.567381
vn -0.717020 0.694050 0.064630
vn -0.717020 0.694050 0.064630
vn -0.717020 0.694050 0.064630
vn -0.717020 0.694050 0.064630
vn 0.093973 0.707907 0.700026
vn 0.093973 0.707907 0.700026
vn 0.117450 0.707118 0.697273
vn 0.117450 0.707118 0.697273
vn -0.093973 0.707908 0.700025
vn -0.093973 0.707908 0.700025
vn -0.117450 0.707118 0.697273
vn -0.117450 0.707118 0.697273
vn -0.121015 0.709810 -0.693920
vn -0.121015 0.709810 -0.693920
vn -0.121015 0.709810 -0.693920
vn -0.121015 0.709810 -0.693920
vn -0.700749 0.707117 0.094533
vn -0.700749 0.707117 0.094533
vn -0.700749 0.707117 0.094533
vn -0.700749 0.707117 0.094533
vn 0.121015 0.709811 -0.693919
vn 0.121015 0.709811 -0.693919
vn 0.121015 0.709811 -0.693920
vn 0.121015 0.709811 -0.693919
vn 0.700751 0.707115 0.094533
vn 0.700751 0.707115 0.094533
vn 0.700751 0.707115 0.094533
vn 0.700751 0.707115 0.094533
vn -0.000001 0.599168 -0.800623
vn -0.000001 0.599168 -0.800623
vn -0.000001 0.599168 -0.800623
vn -0.000001 0.599168 -0.800623
vn 0.000000 -0.596791 0.802397
vn 0.000000 -0.596791 0.802397
vn 0.000000 -0.596791 0.802397
vn 0.000000 -0.596791 0.802397
vn 1.000000 0.000000 -0.000000
vn 1.000000 0.000000 -0.000000
vn 1.000000 0.000000 -0.000000
vn 1.000000 0.000000 -0.000000
vn -1.000000 0.000000 0.000000
vn -1.000000 0.000000 0.000000
vn -1.000000 0.000000 0.000000
vn -1.000000 0.000000 0.000000
vn 0.000000 -0.000031 -1.000000
vn 0.000000 -0.000031 -1.000000
vn 0.000000 -0.000031 -1.000000
vn 0.000000 -0.000031 -1.000000
vn 1.000000 0.000000 0.000000
vn 1.000000 0.000000 0.000000
vn -0.133288 0.000023 0.991077
vn 0.133288 0.000023 0.991077
vn 0.133288 0.000023 0.991077
vn -0.133288 0.000023 0.991077
vn -1.000000 0.000000 0.000000
vn -1.000000 0.000000 0.000000
vn -0.000001 0.997471 0.071077
vn 0.000002 0.997471 0.071077
vn 0.000008 1.000000 -0.000011
vn -0.000008 1.000000 -0.000011
vn -0.991021 0.000017 0.133706
vn -0.991021 0.000017 0.133706
vn -0.991021 0.000017 0.133706
vn -0.991021 0.000017 0.133706
vn 0.991021 0.000017 0.133706
vn 0.991021 0.000017 0.133706
vn 0.991021 0.000017 0.133706
vn 0.991021 0.000017 0.133706
vn -1.000000 0.000000 0.000000
vn -1.000000 0.000000 0.000000
vn 1.000000 0.000000 0.000000
vn 1.000000 0.000000 0.000000
vn 0.000000 0.995728 0.092332
vn 0.000000 0.995728 0.092332
vn -0.171708 -0.000020 -0.985148
vn -0.171708 -0.000020 -0.985148
vn -0.171708 -0.000020 -0.985148
vn -0.171708 -0.000020 -0.985148
vn 0.166091 0.000022 0.986110
vn 0.166091 0.000022 0.986110
vn 0.000009 1.000000 -0.000011
vn 0.000009 1.000000 -0.000011
vn 0.171708 -0.000020 -0.985148
vn 0.171708 -0.000020 -0.985148
vn 0.171708 -0.000020 -0.985148
vn 0.171708 -0.000020 -0.985148
vn -0.000009 1.000000 -0.000011
vn -0.000009 1.000000 -0.000011
vn -0.166091 0.000022 0.986110
vn -0.166091 0.000022 0.986110
s 1
f 13/36/1 15/1/2 17/160/3 11/146/4
f 15/1/2 13/36/5 14/49/6 16/162/7
f 16/162/7 14/49/8 34/63/9 33/151/10
f 11/35/11 17/161/3 18/159/12 12/45/13
f 12/45/14 18/159/12 32/152/15 31/47/16
f 20/34/17 21/7/18 28/155/19 26/52/20
f 21/7/18 20/34/21 19/33/22 22/9/23
f 22/9/23 19/33/24 24/56/25 30/154/26
f 25/59/27 27/156/28 41/147/29 39/58/30
f 27/156/28 25/59/31 26/52/32 28/155/19
f 29/153/33 23/53/34 35/65/35 37/150/36
f 23/53/37 29/153/33 30/154/26 24/56/38
f 31/47/39 32/152/15 38/149/40 36/62/41
f 33/151/10 34/63/42 40/68/43 42/148/44
f 37/150/36 35/65/45 36/62/46 38/149/40
f 39/58/47 41/147/29 42/148/44 40/68/48
f 18/5/12 16/3/7 33/4/10 32/6/15
s 8
f 43/141/49 44/142/50 45/129/51 46/128/52
f 47/131/53 48/134/54 49/138/55 50/136/56
s 1
f 29/13/33 27/11/28 28/8/19 30/10/26
f 15/163/2 16/3/7 18/5/12 17/2/3
s 8
f 51/140/57 44/142/50 43/141/49 52/139/58
f 50/136/56 49/138/55 53/137/59 54/135/60
s 1
f 30/10/26 28/8/19 21/158/18 22/157/23
s 8
f 56/130/61 55/133/62 57/132/63 58/127/64
f 57/132/63 55/133/62 48/134/54 47/131/53
s 1
f 37/14/36 41/12/29 27/11/28 29/13/33
f 32/6/15 33/4/10 42/16/44 38/15/40
s 8
f 46/128/52 45/129/51 56/130/61 58/127/64
s 1
f 41/12/29 37/14/36 38/15/40 42/16/44
s off
f 59/37/65 60/144/66 64/38/67 63/40/68
s 11
f 60/39/69 59/145/70 61/46/71 62/73/72
f 62/73/72 61/46/71 65/61/73 66/69/74
s 12
f 63/40/75 64/38/76 68/70/77 67/48/78
s 11
f 66/69/74 65/61/73 87/66/79 88/79/80
s 12
f 67/48/78 68/70/77 70/80/81 69/50/82
f 69/50/82 70/80/81 90/76/83 89/64/84
s 11
f 71/41/85 72/42/86 74/71/87 73/51/88
s off
f 72/42/89 71/41/90 75/43/91 76/44/92
s 11
f 73/51/88 74/71/87 80/77/93 79/55/94
s 12
f 76/44/95 75/43/96 77/60/97 78/74/98
f 78/74/98 77/60/97 83/57/99 84/72/100
s 11
f 79/55/94 80/77/93 82/75/101 81/54/102
f 81/54/102 82/75/101 88/79/80 87/66/79
s 12
f 84/72/100 83/57/99 85/67/103 86/78/104
f 86/78/104 85/67/103 89/64/84 90/76/83
s 15
f 59/145/105 11/35/106 12/45/107 61/46/108
s off
f 11/146/109 59/37/110 63/40/111 13/36/112
s 15
f 61/46/108 12/45/107 31/47/113 65/61/114
s 16
f 13/36/115 63/40/116 67/48/117 14/49/118
f 14/49/118 67/48/117 69/50/119 34/63/120
s 15
f 19/33/121 71/41/122 73/51/123 24/56/124
s off
f 71/41/125 19/33/126 20/34/127 75/43/128
s 16
f 75/43/129 20/34/130 26/52/131 77/60/132
s 15
f 23/53/133 79/55/134 81/54/135 35/65/136
f 79/55/134 23/53/133 24/56/124 73/51/123
s 16
f 83/57/137 25/59/138 39/58/139 85/67/140
f 25/59/138 83/57/137 77/60/132 26/52/131
s 15
f 65/61/114 31/47/113 36/62/141 87/66/142
s 16
f 34/63/120 69/50/119 89/64/143 40/68/144
s 15
f 35/65/136 81/54/135 87/66/142 36/62/141
s 16
f 85/67/140 39/58/139 40/68/144 89/64/143
s 8
f 62/73/145 66/69/146 45/25/51 44/17/50
f 70/80/147 68/70/148 43/32/49 46/18/52
f 80/77/149 74/71/150 49/30/55 48/19/54
f 78/74/151 84/72/152 47/26/53 50/20/56
f 60/39/153 62/73/145 44/17/50 51/143/57
f 68/70/148 64/38/154 52/31/58 43/32/49
f 64/38/155 60/144/156 51/21/57 52/31/58
f 74/71/150 72/42/157 53/29/59 49/30/55
f 72/42/158 76/44/159 54/28/60 53/29/59
f 76/44/160 78/74/151 50/20/56 54/28/60
f 88/79/161 82/75/162 55/27/62 56/22/61
f 86/78/163 90/76/164 58/24/64 57/23/63
f 82/75/162 80/77/149 48/19/54 55/27/62
f 84/72/152 86/78/163 57/23/63 47/26/53
f 66/69/146 88/79/161 56/22/61 45/25/51
f 90/76/164 70/80/147 46/18/52 58/24/64
s 19
f 92/81/165 91/82/166 94/83/167 93/171/168
f 93/84/168 94/167/167 108/85/169 107/109/170
s 20
f 96/86/171 95/106/172 98/87/173 97/164/174
f 97/88/174 98/172/173 110/89/175 109/113/176
s off
f 100/90/177 99/107/178 102/169/179 101/166/180
f 101/92/181 102/170/182 126/104/183 125/118/184
f 104/93/185 103/108/186 106/165/187 105/168/188
f 105/95/189 106/94/190 124/120/191 123/96/192
s 21
f 111/111/193 112/97/194 117/98/195 118/122/196
f 112/97/194 111/111/193 114/100/197 113/99/198
f 113/99/198 114/100/197 121/101/199 122/105/200
s off
f 115/114/201 116/102/202 123/96/203 124/120/204
f 116/102/205 115/114/206 118/122/207 117/98/208
f 119/103/209 120/124/210 125/118/211 126/104/212
f 120/124/213 119/103/214 122/105/215 121/101/216
f 98/87/217 95/106/218 92/81/219 93/171/220
f 105/168/221 102/91/222 99/173/223 104/93/224
s 22
f 100/90/225 101/166/226 94/83/227 91/82/228
s 23
f 106/165/229 103/108/230 96/86/231 97/164/232
s off
f 98/172/233 93/84/234 107/109/235 110/89/236
s 22
f 94/167/227 101/92/226 1/110/237 108/85/238
s 24
f 114/100/239 111/111/240 3/112/241 4/126/242
s 23
f 106/94/229 97/88/232 109/113/243 2/117/244
s 25
f 126/104/245 123/96/246 112/97/247 113/99/248
s off
f 115/114/249 7/115/250 8/123/251 118/122/252
f 9/125/253 120/124/254 121/101/255 10/116/256
s 23
f 106/94/229 2/117/244 5/121/257 124/120/258
s 22
f 1/110/237 101/92/226 125/118/259 6/119/260
s 25
f 102/170/261 105/95/262 123/96/246 126/104/245
s off
f 124/120/263 5/121/264 7/115/265 115/114/266
s 24
f 3/112/241 111/111/240 118/122/267 8/123/268
s 25
f 112/97/247 123/96/246 116/102/269 117/98/270
s off
f 6/119/271 125/118/272 120/124/273 9/125/274
s 25
f 126/104/245 113/99/248 122/105/275 119/103/276
s 24
f 114/100/239 4/126/242 10/116/277 121/101/278
