# This file uses centimeters as units for non-parametric coordinates.

v -360.199524 18.820633 14.423256
v 360.199524 18.820633 14.423256
v 360.199524 388.792908 79.659348
v -360.199524 388.792908 79.659348
v -360.199524 19.794081 8.902571
v 360.199524 19.794081 8.902571
v 360.199524 389.766357 74.138672
v -360.199524 389.766357 74.138672
v -373.838745 0.000000 5.553987
v -368.372345 4.434096 11.886520
v 373.838745 0.000000 5.553987
v 368.372345 4.434096 11.886520
v -373.838745 401.628296 76.371887
v -368.372345 395.295807 80.805992
v 373.838745 401.628296 76.371887
v 368.372345 395.295807 80.805992
v -373.838745 403.527161 65.603134
v -368.372345 399.093048 59.270588
v 368.372345 399.093048 59.270588
v 373.838745 403.527161 65.603134
v -368.372345 8.231354 -9.648875
v -373.838745 1.898814 -5.214791
v 368.372345 8.231354 -9.648875
v 373.838745 1.898814 -5.214791
vt 0.205986 0.403949
vt 0.029401 0.000000
vt 0.770509 0.595043
vt 0.366172 0.518995
vt 0.191358 0.412466
vt 0.195176 0.408700
vt 0.009658 0.000166
vt 0.993561 0.538067
vt 0.772628 0.608644
vt 0.359232 0.530641
vt 0.361584 0.526023
vt 0.185749 0.416679
vt 0.772678 0.615668
vt 0.356572 0.537203
vt 0.355541 0.541409
vt 0.772309 0.619876
vt 0.000000 0.008403
vt 1.000000 0.548921
vt 0.203073 0.406102
vt 0.772149 0.603457
vt 0.026108 0.001552
vt 0.770546 0.598660
vt 0.364794 0.522337
vt 0.182139 0.418662
vt 0.163586 0.301561
vt 0.121731 0.080269
vt 0.587934 0.221299
vt 0.546078 0.000007
vt 0.015653 0.001234
vt 0.983769 0.535390
vt 0.003192 0.003219
vt 0.998051 0.542010
vt 0.998064 0.554747
vt 0.982769 0.531896
vn 0.000000 -0.173648 0.984808
vn 0.000000 -0.173648 0.984808
vn 0.000000 -0.173648 0.984808
vn 0.000000 -0.173648 0.984808
vn 0.000000 0.984808 0.173648
vn 0.000000 0.984808 0.173648
vn 0.000000 0.984808 0.173648
vn 0.000000 0.984808 0.173648
vn -1.000000 0.000001 0.000000
vn -1.000000 0.000001 0.000000
vn -1.000000 0.000001 0.000000
vn -1.000000 0.000001 0.000000
vn 0.000000 -0.984807 -0.173650
vn 0.000000 -0.984807 -0.173650
vn 0.000000 -0.984807 -0.173650
vn 0.000000 -0.984807 -0.173650
vn 1.000000 0.000000 0.000000
vn 1.000000 0.000000 0.000000
vn 1.000000 0.000000 0.000000
vn 1.000000 0.000000 0.000000
vn -0.707106 -0.122788 0.696365
vn -0.707106 -0.122788 0.696365
vn -0.707106 -0.122788 0.696365
vn -0.707106 -0.122788 0.696365
vn 0.000000 -0.819152 0.573577
vn 0.000000 -0.819152 0.573577
vn 0.000000 -0.819152 0.573577
vn 0.000000 -0.819152 0.573577
vn 0.707106 -0.122788 0.696365
vn 0.707106 -0.122788 0.696365
vn 0.707106 -0.122788 0.696365
vn 0.707106 -0.122788 0.696365
vn 0.000000 0.573579 0.819151
vn 0.000000 0.573579 0.819151
vn 0.000000 0.573579 0.819151
vn 0.000000 0.573579 0.819151
vn -0.707106 0.122789 -0.696365
vn -0.707106 0.122789 -0.696365
vn -0.707106 0.122789 -0.696365
vn -0.707106 0.122789 -0.696365
vn 0.000000 0.819152 -0.573576
vn 0.000000 0.819152 -0.573576
vn 0.000000 0.819152 -0.573576
vn 0.000000 0.819152 -0.573576
vn 0.707106 0.122789 -0.696365
vn 0.707106 0.122789 -0.696365
vn 0.707106 0.122789 -0.696365
vn 0.707106 0.122789 -0.696365
vn 0.000000 -0.573576 -0.819153
vn 0.000000 -0.573576 -0.819152
vn 0.000000 -0.573576 -0.819152
vn 0.000000 -0.573576 -0.819153
vn 0.000000 0.984807 0.173652
vn 0.000000 0.984807 0.173652
vn 0.000000 0.984807 0.173652
vn 0.000000 0.984807 0.173652
vn 0.000000 -0.984808 -0.173647
vn 0.000000 -0.984808 -0.173647
vn 0.000000 -0.984808 -0.173647
vn 0.000000 -0.984808 -0.173647
vn 1.000000 0.000000 0.000000
vn 1.000000 0.000000 0.000000
vn 1.000000 0.000000 0.000000
vn 1.000000 0.000000 0.000000
vn -1.000000 0.000000 0.000000
vn -1.000000 0.000000 0.000000
vn -1.000000 0.000000 0.000000
vn -1.000000 0.000000 0.000000
vn 0.000000 -0.173648 0.984808
vn -0.000000 -0.173648 0.984808
vn -0.000000 -0.173648 0.984808
vn 0.000000 -0.173648 0.984808
vn -0.000000 -0.173648 0.984808
vn -0.000000 -0.173648 0.984808
vn -0.000000 -0.173648 0.984808
vn -0.000000 -0.173648 0.984808
vn -0.000000 -0.173648 0.984808
vn 0.000000 -0.173648 0.984808
vn 0.000000 -0.173648 0.984808
vn -0.000000 -0.173648 0.984808
vn 0.000000 -0.173648 0.984808
vn 0.000000 -0.173648 0.984808
vn 0.000000 -0.173648 0.984808
vn 0.000000 -0.173648 0.984808
s off
f 5/26/1 6/28/2 7/27/3 8/25/4
f 1/19/5 2/21/6 6/2/7 5/1/8
f 2/30/9 3/22/10 7/3/11 6/34/12
f 3/22/13 4/23/14 8/4/15 7/3/16
f 4/23/17 1/19/18 5/1/19 8/4/20
f 9/5/21 10/6/22 14/11/23 13/10/24
f 10/6/25 9/5/26 11/7/27 12/29/28
f 12/8/29 11/32/30 15/9/31 16/20/32
f 13/10/33 14/11/34 16/20/35 15/9/36
f 17/14/37 18/15/38 21/24/39 22/12/40
f 18/15/41 17/14/42 20/13/43 19/16/44
f 19/16/45 20/13/46 24/18/47 23/33/48
f 22/12/49 21/24/50 23/17/51 24/31/52
f 13/10/53 15/9/54 20/13/55 17/14/56
f 22/12/57 24/31/58 11/7/59 9/5/60
f 11/32/61 24/18/62 20/13/63 15/9/64
f 22/12/65 9/5/66 13/10/67 17/14/68
f 10/6/69 12/29/70 2/21/71 1/19/72
f 12/8/73 16/20/74 3/22/75 2/30/76
f 16/20/77 14/11/78 4/23/79 3/22/80
f 14/11/81 10/6/82 1/19/83 4/23/84
