# This file uses centimeters as units for non-parametric coordinates.

v 0.000000 91.666428 0.000000
v 0.003058 604.422791 0.000000
v 30.003059 604.422791 0.000000
v 30.000002 91.666428 0.000000
v 629.999878 91.666428 -630.003052
v 629.999878 604.422791 -630.000000
v 629.999878 604.422791 -600.000000
v 629.999878 91.666428 -600.003052
v 22.748047 91.666397 -267.052246
v 22.748047 604.422791 -267.052246
v 51.763672 604.422791 -261.593018
v 51.763672 91.666397 -261.593018
v 142.461914 91.666397 -487.538086
v 142.461914 604.422791 -487.538086
v 162.794922 604.422791 -467.205078
v 162.794922 91.666397 -467.205078
v 362.947754 91.666397 -607.251953
v 362.947754 604.422791 -607.251953
v 368.406982 604.422791 -578.236084
v 368.406982 91.666397 -578.236084
v 354.148315 0.000000 -636.611023
v 354.148315 71.818878 -636.611023
v 629.999878 71.818878 -660.000000
v 629.999878 0.000000 -660.003052
v -30.000000 0.000000 0.000000
v -29.996943 71.818878 0.000000
v -6.611047 71.818878 -275.851685
v -6.611047 0.000000 -275.851685
v 120.337601 71.818878 -509.662354
v 120.337601 0.000000 -509.662354
v 629.999878 71.818878 -570.003052
v 377.143677 71.818878 -548.859314
v 377.143677 0.000000 -548.859314
v 629.999878 0.000000 -570.003052
v 81.140465 71.818878 -252.856323
v 59.999996 71.818878 0.000000
v 60.000000 0.000000 0.000000
v 81.140465 0.000001 -252.856323
v 184.934265 71.818878 -445.065765
v 184.934250 0.000001 -445.065765
v -29.996943 624.270386 0.000000
v -6.611045 624.270386 -275.851685
v -29.996943 700.200073 0.000000
v -6.611045 700.200012 -275.851685
v 120.337624 624.270386 -509.662415
v 120.337601 700.200012 -509.662354
v 354.148315 624.270386 -636.611084
v 354.148315 700.200012 -636.611084
v 629.999878 624.270386 -660.000000
v 629.999878 700.200073 -660.000000
v 377.143677 700.200012 -548.859253
v 377.143677 624.270386 -548.859253
v 629.999878 624.270386 -570.000000
v 629.999878 700.200073 -570.000000
v 184.934250 700.200012 -445.065765
v 184.934250 624.270386 -445.065765
v 81.140450 700.200012 -252.856323
v 81.140450 624.270386 -252.856323
v 60.003059 700.200073 0.000000
v 60.003059 624.270386 0.000000
vt 0.992381 0.003937
vt 0.992381 0.039028
vt 0.899044 0.039028
vt 0.899044 0.003937
vt 0.899044 0.056495
vt 0.992381 0.056495
vt 0.992883 0.039494
vt 0.992883 0.004402
vt 0.992381 0.305048
vt 0.899044 0.305048
vt 0.992381 0.322542
vt 0.899044 0.322542
vt 0.810444 0.305048
vt 0.992883 0.056960
vt 0.992381 0.359746
vt 0.899044 0.359746
vt 0.992883 0.323007
vt 0.810444 0.359746
vt 0.809717 0.305851
vt 0.809717 0.055787
vt 0.907277 0.055787
vt 0.907277 0.305851
vt 0.809717 0.038429
vt 0.907277 0.038429
vt 0.992783 0.055787
vt 0.810705 0.305901
vt 0.809717 0.323226
vt 0.907277 0.323226
vt 0.809717 0.003908
vt 0.907277 0.003908
vt 0.809717 0.359814
vt 0.907277 0.359814
vt 0.810705 0.038330
vt 0.992783 0.003908
vt 0.992783 0.323226
vt 0.810705 0.359894
vt 0.904336 0.305514
vt 0.904336 0.323007
vt 0.810872 0.323007
vt 0.810872 0.305514
vt 0.896026 0.305901
vt 0.896026 0.323286
vt 0.993528 0.305901
vt 0.993528 0.323286
vt 0.904336 0.056960
vt 0.904336 0.039494
vt 0.810872 0.056960
vt 0.810872 0.039494
vt 0.896026 0.038330
vt 0.896026 0.055697
vt 0.993528 0.038330
vt 0.993528 0.055697
vt 0.904336 0.004402
vt 0.810872 0.004402
vt 0.896026 0.003788
vt 0.993528 0.003788
vt 0.904336 0.360211
vt 0.810872 0.360211
vt 0.896026 0.359894
vt 0.993528 0.359894
vt 0.992783 0.359814
vt 0.810705 0.323286
vt 0.992783 0.305851
vt 0.992783 0.038429
vt 0.810705 0.003788
vt 0.810705 0.055697
vt 0.810444 0.322542
vt 0.992883 0.360211
vt 0.992883 0.305514
vt 0.810444 0.003937
vt 0.810444 0.039028
vt 0.810444 0.056495
vn -0.282926 0.000011 -0.959142
vn -0.282926 0.000011 -0.959142
vn -0.084491 0.000021 -0.996424
vn -0.084491 0.000021 -0.996424
vn -0.280480 0.000002 -0.959860
vn -0.280480 0.000002 -0.959860
vn -0.084880 0.000003 -0.996391
vn -0.084880 0.000003 -0.996391
vn -0.046781 -0.833538 -0.550477
vn -0.046781 -0.833538 -0.550477
vn -0.153234 -0.839145 -0.521876
vn -0.153247 -0.839145 -0.521872
vn 0.147887 -0.839112 0.523470
vn 0.045912 -0.833566 0.550509
vn 0.045912 -0.833566 0.550509
vn 0.147898 -0.839112 0.523467
vn 0.273406 -0.000002 0.961899
vn 0.273406 -0.000002 0.961899
vn 0.082917 -0.000003 0.996557
vn 0.082917 -0.000003 0.996557
vn 0.083329 0.000000 0.996522
vn 0.270270 0.000000 0.962785
vn 0.270270 0.000000 0.962785
vn 0.083329 0.000000 0.996522
vn -0.996425 0.000021 -0.084480
vn -0.996425 0.000021 -0.084480
vn -0.959143 0.000011 -0.282920
vn -0.959143 0.000011 -0.282920
vn -0.996392 0.000003 -0.084869
vn -0.996392 0.000003 -0.084869
vn -0.959861 0.000002 -0.280475
vn -0.959861 0.000002 -0.280475
vn -0.521877 -0.839145 -0.153231
vn -0.550478 -0.833538 -0.046775
vn -0.550478 -0.833538 -0.046775
vn -0.521873 -0.839145 -0.153244
vn 0.550510 -0.833566 0.045905
vn 0.550510 -0.833566 0.045905
vn 0.523470 -0.839112 0.147884
vn 0.523468 -0.839112 0.147894
vn 0.996558 -0.000003 0.082904
vn 0.996558 -0.000003 0.082904
vn 0.961900 -0.000002 0.273400
vn 0.961900 -0.000002 0.273400
vn 0.962786 -0.000000 0.270263
vn 0.996523 0.000000 0.083316
vn 0.996523 0.000000 0.083316
vn 0.962786 -0.000000 0.270263
vn -0.707107 0.000000 -0.707107
vn -0.707107 0.000000 -0.707107
vn -0.707107 0.000000 -0.707107
vn -0.707107 0.000000 -0.707107
vn -0.378769 -0.844434 -0.378768
vn -0.378768 -0.844434 -0.378769
vn 0.378585 -0.844599 0.378585
vn 0.378585 -0.844598 0.378585
vn 0.707107 0.000000 0.707107
vn 0.707107 0.000000 0.707107
vn 0.707107 -0.000000 0.707107
vn 0.707107 -0.000000 0.707107
vn -0.959144 0.000000 -0.282918
vn -0.996426 0.000000 -0.084474
vn -0.996426 0.000000 -0.084474
vn -0.959144 0.000000 -0.282918
vn -0.707107 0.000000 -0.707107
vn -0.707107 0.000000 -0.707107
vn -0.282923 0.000000 -0.959143
vn -0.282923 0.000000 -0.959143
vn -0.084485 0.000000 -0.996425
vn -0.084485 0.000000 -0.996425
vn 0.270263 0.000000 0.962786
vn 0.270263 0.000000 0.962786
vn 0.083317 0.000000 0.996523
vn 0.083317 0.000000 0.996523
vn 0.707106 0.000000 0.707107
vn 0.707106 0.000000 0.707107
vn 0.962788 0.000000 0.270257
vn 0.962788 0.000000 0.270257
vn 0.996524 0.000000 0.083304
vn 0.996524 0.000000 0.083304
vn -0.046785 0.833526 -0.550495
vn -0.046785 0.833526 -0.550495
vn -0.153251 0.839139 -0.521881
vn -0.153238 0.839139 -0.521885
vn -0.521885 0.839140 -0.153235
vn -0.521881 0.839140 -0.153248
vn -0.550496 0.833526 -0.046779
vn -0.550496 0.833526 -0.046779
vn -0.378768 0.844435 -0.378768
vn -0.378768 0.844435 -0.378768
vn 0.147890 0.839112 0.523468
vn 0.147901 0.839113 0.523465
vn 0.045918 0.833567 0.550507
vn 0.045918 0.833567 0.550507
vn 0.550508 0.833567 0.045911
vn 0.550508 0.833567 0.045911
vn 0.523465 0.839113 0.147898
vn 0.523468 0.839113 0.147887
vn 0.378584 0.844599 0.378584
vn 0.378584 0.844599 0.378584
s 1
f 21/53/1 22/46/2 23/48/3 24/54/4
s 2
f 17/45/5 18/37/6 6/40/7 5/47/8
s 3
f 49/39/9 6/40/10 18/37/11 47/38/12
s 4
f 19/41/13 7/43/14 53/44/15 52/42/16
s 5
f 19/41/17 20/50/18 8/52/19 7/43/20
s 6
f 31/51/21 32/49/22 33/55/23 34/56/24
s 1
f 25/1/25 26/2/26 27/3/27 28/4/28
s 2
f 1/6/29 2/9/30 10/10/31 9/5/32
s 3
f 10/10/33 2/9/34 41/11/35 42/12/36
s 4
f 60/27/37 3/19/38 11/22/39 58/28/40
s 5
f 3/19/41 4/20/42 12/21/43 11/22/44
s 6
f 35/24/45 36/23/46 37/29/47 38/30/48
s 1
f 28/4/28 27/3/27 29/71/49 30/70/50
s 2
f 9/5/32 10/10/31 14/13/51 13/72/52
s 3
f 14/13/53 10/10/33 42/12/36 45/67/54
s 4
f 11/22/39 15/63/55 56/35/56 58/28/40
s 5
f 11/22/44 12/21/43 16/25/57 15/63/58
s 6
f 39/64/59 35/24/45 38/30/48 40/34/60
s 1
f 30/8/50 29/7/49 22/46/2 21/53/1
s 2
f 13/14/52 14/69/51 18/37/6 17/45/5
s 3
f 18/37/11 14/69/53 45/17/54 47/38/12
s 4
f 15/26/55 19/41/13 52/42/16 56/62/56
s 5
f 15/26/58 16/66/57 20/50/18 19/41/17
s 6
f 32/49/22 39/33/59 40/65/60 33/55/23
s 13
f 42/12/61 41/11/62 43/15/63 44/16/64
f 45/67/65 42/12/61 44/16/64 46/18/66
f 47/38/67 45/17/65 46/68/66 48/57/68
f 49/39/69 47/38/67 48/57/68 50/58/70
s 14
f 51/59/71 52/42/72 53/44/73 54/60/74
f 55/36/75 56/62/76 52/42/72 51/59/71
f 57/32/77 58/28/78 56/35/76 55/61/75
f 59/31/79 60/27/80 58/28/78 57/32/77
s 15
f 5/47/81 23/48/82 22/46/83 17/45/84
f 9/5/85 27/3/86 26/2/87 1/6/88
f 13/72/89 29/71/90 27/3/86 9/5/85
f 17/45/84 22/46/83 29/7/90 13/14/89
s 17
f 20/50/91 32/49/92 31/51/93 8/52/94
f 4/20/95 36/23/96 35/24/97 12/21/98
f 12/21/98 35/24/97 39/64/99 16/25/100
f 16/66/100 39/33/99 32/49/92 20/50/91
