# This file uses centimeters as units for non-parametric coordinates.

v -1126.945557 787.000549 114.372192
v -1126.945557 706.876343 65.271484
v -1126.945557 528.682129 7.373047
v -1126.945557 434.999939 0.000000
v -1126.945557 0.000000 0.000000
v -1126.921875 966.733398 327.750610
v -1126.921875 1002.694580 414.569336
v -1126.945557 1033.859131 598.859131
v -1126.945557 804.688660 99.087646
v -1126.945557 720.538147 47.519531
v -1126.945557 533.389771 -13.288086
v -1126.945557 436.178650 -20.938965
v -1126.945557 0.000000 -20.938965
v -1126.921875 993.546265 323.149902
v -1126.921875 1031.314453 414.331177
v -1126.945557 1063.766602 605.566406
v 3.553711 1063.435547 595.308350
v 9.259888 1029.783691 405.291138
v 12.209229 991.370117 315.544800
v 18.926758 800.698303 95.512207
v 20.014404 717.197205 45.295898
v 21.105713 532.555054 -13.708496
v 21.220215 435.833801 -21.206055
v 21.220337 -0.000046 -21.206055
v 0.000000 -0.000046 0.000000
v 0.000000 434.999908 0.000000
v 0.000000 528.682068 7.373047
v 0.000000 706.876282 65.271484
v 0.000000 787.000549 114.372070
v -0.022827 966.733398 327.750610
v -0.022827 1002.694580 414.569336
v 0.000000 1033.859131 598.859131
v -126.597900 804.536011 89.931396
v -133.789795 799.232300 97.236572
v -1000.708618 804.841309 90.119385
v -993.516357 799.532654 97.422363
v -126.236572 720.385498 38.365723
v -133.432373 716.290100 46.408691
v -1000.346924 720.690796 38.553467
v -993.154663 716.590454 46.594238
v -1003.504883 992.652222 311.930420
v -996.261108 984.624023 316.064819
v -128.267578 994.481079 316.344482
v -135.435303 986.422668 320.406128
v -998.677612 1030.379639 403.014526
v -991.509888 1021.809998 405.840454
v -123.441895 1032.208496 407.428467
v -130.679932 1023.608582 410.181641
v -1000.701294 787.153198 114.465820
v -993.509033 792.456360 107.161743
v -126.590088 786.847900 114.278442
v -133.786133 792.156006 106.976562
v -1000.354248 707.028992 65.366455
v -993.161987 711.124939 57.321289
v -126.247559 706.723633 65.178711
v -133.436157 710.824524 57.135742
v -128.151123 967.667114 330.004028
v -135.392090 975.695312 325.870483
v -1003.390503 965.838257 325.589722
v -996.220337 973.896667 321.529175
v -123.557861 1003.589722 416.730225
v -130.726074 1012.159424 413.903198
v -998.796875 1001.760864 412.315918
v -991.558838 1010.360779 409.561890
v -126.907837 838.650330 119.069580
v -150.767822 866.645020 142.976685
v -160.591797 853.801514 143.595337
v -133.930176 828.405151 122.021240
v -977.466797 867.183777 143.367554
v -1000.878540 839.035461 119.325195
v -993.659302 828.705872 122.205688
v -967.232544 854.083801 143.768311
v -149.482910 644.638367 6.991455
v -126.068359 678.839600 21.156738
v -133.295654 680.962219 31.667236
v -159.713501 650.228455 18.845703
v -1000.038940 679.242371 21.385010
v -976.181396 645.230835 7.293945
v -966.361084 650.510681 19.018311
v -993.020752 681.263000 31.853271
v -1005.543213 971.082764 272.954590
v -983.564697 951.916748 241.728760
v -973.169556 949.314880 254.360718
v -998.132080 966.577576 282.642212
v -155.780029 953.474731 245.623291
v -130.414917 972.856567 277.277466
v -137.267456 968.375793 286.984131
v -165.451294 951.002563 258.433960
v -971.168701 1051.392334 482.017334
v -996.534790 1042.713501 445.929565
v -989.679810 1032.682373 442.234253
v -961.498047 1040.585449 474.707153
v -121.404785 1044.517822 450.240356
v -143.385742 1053.045288 485.872681
v -153.781738 1042.273193 478.780396
v -128.811523 1034.480713 446.576172
v -151.112915 845.630920 164.481445
v -126.735107 818.242249 141.092041
v -133.919189 819.883301 130.543823
v -160.579590 845.273987 152.122925
v -1001.012451 818.630920 141.350586
v -977.094360 846.179321 164.880615
v -967.224365 845.556213 152.295898
v -993.641357 820.184021 130.728027
v -975.838379 635.610168 35.780762
v -1000.215332 668.885559 49.566895
v -993.029663 677.538330 43.315430
v -966.368530 646.784058 30.487793
v -125.937256 668.478210 49.336914
v -149.858154 635.005920 35.473389
v -159.724487 646.501770 30.315430
v -133.307129 677.237427 43.129639
v -982.868896 927.387695 259.115723
v -1005.407593 946.136353 289.659912
v -997.999756 956.825317 289.723877
v -973.031494 939.557190 261.446045
v -129.971069 947.908142 293.980835
v -155.806152 928.937439 262.996216
v -165.314453 941.244934 265.519287
v -137.128174 958.624084 294.064575
v -144.080322 1023.405945 490.923096
v -121.537964 1015.065674 456.067871
v -128.948975 1022.578613 448.464111
v -153.916016 1030.362793 480.670288
v -996.977417 1013.261780 451.759399
v -971.141846 1021.757568 487.083374
v -961.633545 1028.675171 476.596924
v -989.821045 1020.779663 444.123291
v 17.890869 849.458618 135.984741
v -140.160400 879.587097 154.031372
v 16.304321 908.307495 194.859985
v -1126.945557 911.784241 200.707764
v -987.861084 879.883118 154.213135
v -1126.945557 854.473206 141.607544
v -139.085327 629.209595 0.599854
v 20.653320 657.741638 21.395996
v -1126.945557 660.049438 22.464844
v -986.783081 629.505554 0.781250
v -1126.945557 961.190857 266.557495
v -995.067261 943.005798 227.175171
v -146.238281 944.779541 231.455688
v 14.449707 958.902771 260.779053
v -980.712891 1055.261475 498.184082
v -1126.945557 1048.452637 477.225586
v 5.661865 1047.801270 467.216431
v -131.882446 1057.035156 502.464600
v -1126.945557 833.194397 153.825195
v -987.839111 858.604370 175.491943
v -1126.945557 888.972107 211.130127
v 0.000000 888.972107 211.130127
v -140.138428 858.308411 175.310181
v 0.000000 833.197327 153.827759
v -986.814209 620.206421 29.401123
v -1126.945557 650.751526 42.024170
v 0.000000 650.747742 42.022705
v -139.109863 619.910400 29.219971
v 0.000000 936.843811 275.182129
v -145.895752 920.431274 249.137207
v -994.726685 918.657471 244.856689
v -1126.945557 936.845947 275.185669
v -132.225464 1027.315674 507.178833
v 0.000000 1018.731262 472.875854
v -1126.945557 1018.730408 472.872192
v -981.054321 1025.541870 502.898193
vt 0.309300 0.723275
vt 0.309548 0.695959
vt 0.633837 0.699480
vt 0.633617 0.727023
vt 0.634830 0.576398
vt 0.310649 0.573124
vt 0.636809 0.730569
vt 0.304458 0.730395
vt 0.304478 0.702728
vt 0.636782 0.702877
vt 0.304501 0.574621
vt 0.636722 0.574725
vt 0.349380 0.808408
vt 0.346454 0.808721
vt 0.347135 0.780344
vt 0.350184 0.780694
vt 0.599980 0.812633
vt 0.596932 0.812241
vt 0.597086 0.784500
vt 0.600068 0.784129
vt 0.596089 0.899872
vt 0.599171 0.899567
vt 0.596918 0.928258
vt 0.593880 0.927836
vt 0.345525 0.895940
vt 0.348570 0.896404
vt 0.347044 0.923917
vt 0.343998 0.924281
vt 0.593690 0.811782
vt 0.340315 0.814742
vt 0.340402 0.786683
vt 0.343638 0.786830
vt 0.600967 0.814972
vt 0.597800 0.814877
vt 0.353420 0.781085
vt 0.600210 0.786877
vt 0.351781 0.897075
vt 0.599544 0.900330
vt 0.600669 0.928428
vt 0.597309 0.928416
vt 0.339909 0.898785
vt 0.343274 0.898794
vt 0.590677 0.927241
vt 0.341048 0.926860
vt 0.306086 0.808397
vt 0.306881 0.778966
vt 0.634758 0.783468
vt 0.635090 0.813469
vt 0.633181 0.900396
vt 0.632557 0.930318
vt 0.306978 0.923709
vt 0.306712 0.894173
vt 0.303510 0.814766
vt 0.303520 0.786172
vt 0.637319 0.786660
vt 0.637710 0.815225
vt 0.637133 0.899686
vt 0.636856 0.928169
vt 0.303466 0.927530
vt 0.303688 0.899068
vt 0.592585 0.842424
vt 0.632746 0.856947
vt 0.307090 0.851529
vt 0.352996 0.838408
vt 0.354497 0.751277
vt 0.592761 0.754471
vt 0.588212 0.957167
vt 0.629483 0.985740
vt 0.309558 0.979550
vt 0.349292 0.954008
vt 0.304011 0.856892
vt 0.345453 0.843190
vt 0.595137 0.843578
vt 0.636998 0.857502
vt 0.595429 0.758203
vt 0.346150 0.758079
vt 0.303623 0.983451
vt 0.347190 0.955257
vt 0.597008 0.957074
vt 0.636475 0.984243
vt 0.348126 0.822226
vt 0.356168 0.833706
vt 0.306788 0.827175
vt 0.350825 0.819781
vt 0.359407 0.830260
vt 0.353509 0.817914
vt 0.588819 0.835088
vt 0.589702 0.837687
vt 0.598198 0.826409
vt 0.633730 0.833098
vt 0.586574 0.834041
vt 0.595551 0.823995
vt 0.585832 0.830821
vt 0.343935 0.825222
vt 0.357345 0.756012
vt 0.349001 0.766937
vt 0.307956 0.760170
vt 0.360424 0.759665
vt 0.351605 0.769306
vt 0.361180 0.762900
vt 0.596733 0.776293
vt 0.597902 0.770644
vt 0.589670 0.759216
vt 0.633709 0.764319
vt 0.595268 0.773166
vt 0.586491 0.762696
vt 0.592618 0.775108
vt 0.352445 0.766562
vt 0.598398 0.885794
vt 0.590759 0.874343
vt 0.594172 0.869613
vt 0.632687 0.880882
vt 0.595638 0.888115
vt 0.587406 0.877819
vt 0.592902 0.889751
vt 0.350237 0.878665
vt 0.356956 0.871438
vt 0.348050 0.882625
vt 0.307040 0.875451
vt 0.354318 0.866733
vt 0.359963 0.875058
vt 0.350508 0.885204
vt 0.360713 0.878259
vt 0.595546 0.889885
vt 0.585585 0.952425
vt 0.594514 0.941545
vt 0.630974 0.949393
vt 0.582651 0.948753
vt 0.592026 0.939117
vt 0.581953 0.945497
vt 0.345050 0.937295
vt 0.345012 0.937822
vt 0.352676 0.949292
vt 0.308940 0.942791
vt 0.347719 0.935349
vt 0.356053 0.945842
vt 0.350378 0.933523
vt 0.590351 0.948566
vt 0.591854 0.838674
vt 0.599799 0.827610
vt 0.637241 0.833604
vt 0.340815 0.827364
vt 0.348670 0.838396
vt 0.303825 0.833089
vt 0.349416 0.762980
vt 0.341485 0.774033
vt 0.304124 0.767930
vt 0.599901 0.774158
vt 0.592222 0.763001
vt 0.636965 0.768316
vt 0.347112 0.875075
vt 0.339806 0.886177
vt 0.303950 0.880844
vt 0.343583 0.870169
vt 0.598662 0.887797
vt 0.590439 0.876682
vt 0.593405 0.871906
vt 0.636988 0.881422
vt 0.593477 0.952161
vt 0.600770 0.941049
vt 0.636538 0.946398
vt 0.341938 0.939381
vt 0.350155 0.950484
vt 0.303667 0.945758
vt 0.353194 0.946855
vt 0.357032 0.942676
vt 0.344399 0.926841
vt 0.589480 0.937225
vt 0.597601 0.938950
vt 0.350271 0.923577
vt 0.596192 0.900348
vt 0.352996 0.887274
vt 0.587400 0.880315
vt 0.586470 0.881016
vt 0.342982 0.888272
vt 0.592836 0.900137
vt 0.589093 0.766647
vt 0.585558 0.765884
vt 0.596809 0.786971
vt 0.354213 0.771007
vt 0.344619 0.776259
vt 0.593958 0.784958
vt 0.343620 0.814696
vt 0.592911 0.822253
vt 0.351815 0.834748
vt 0.360385 0.827100
vt 0.596646 0.825396
vt 0.352456 0.808011
vn 0.003193 0.101581 -0.994822
vn -0.000237 0.014196 -0.999899
vn -0.000237 0.014214 -0.999899
vn -0.003542 0.101533 -0.994826
vn -0.000233 -0.000000 -1.000000
vn -0.000233 -0.000000 -1.000000
vn -0.001041 -0.123181 0.992384
vn 0.001044 -0.123154 0.992387
vn -0.000000 -0.013945 0.999903
vn -0.000000 -0.013945 0.999903
vn 0.000000 0.000000 1.000000
vn 0.000000 0.000000 1.000000
vn -0.938887 0.190149 -0.286940
vn -0.006919 0.564664 -0.825292
vn -0.003163 0.470217 -0.882545
vn -0.938362 0.163752 -0.304405
vn 0.002570 0.567726 -0.823214
vn 0.938395 0.196863 -0.284006
vn 0.938920 0.169284 -0.299621
vn -0.000399 0.472745 -0.881199
vn 0.937407 0.296004 -0.183437
vn 0.028670 0.905165 -0.424092
vn 0.035472 0.937817 -0.345312
vn 0.939010 0.302812 -0.162990
vn -0.038990 0.903343 -0.427144
vn -0.938975 0.329467 -0.098879
vn -0.937383 0.339079 -0.079617
vn -0.042045 0.936323 -0.348613
vn 0.950993 -0.170312 0.258082
vn 0.064878 -0.566743 0.821336
vn 0.064693 -0.473747 0.878282
vn 0.951251 -0.145982 0.271681
vn -0.064693 -0.567482 0.820841
vn -0.951251 -0.175812 0.253401
vn -0.950989 -0.152607 0.268944
vn -0.064886 -0.474514 0.877853
vn -0.949021 -0.265134 0.170481
vn -0.065375 -0.903569 0.423425
vn -0.066172 -0.934981 0.348470
vn -0.949112 -0.274678 0.154073
vn 0.066169 -0.907537 0.414726
vn 0.949046 -0.303352 0.085380
vn 0.948963 -0.308186 0.067021
vn 0.065375 -0.938327 0.339513
vn 0.047364 0.563758 -0.824581
vn 0.050961 0.468826 -0.881819
vn -0.062810 0.473801 -0.878389
vn -0.058863 0.570062 -0.819490
vn -0.032168 0.907871 -0.418013
vn -0.024332 0.940807 -0.338068
vn 0.013932 0.935675 -0.352589
vn 0.017203 0.902112 -0.431158
vn 0.000074 -0.568662 0.822571
vn -0.000085 -0.474514 0.880248
vn -0.000075 -0.474745 0.880123
vn 0.000080 -0.568882 0.822419
vn -0.000246 -0.906656 0.421871
vn -0.001812 -0.938428 0.345470
vn 0.000243 -0.939411 0.342794
vn 0.001808 -0.907854 0.419283
vn -0.003545 0.800815 -0.598901
vn -0.019804 0.765769 -0.642811
vn 0.016940 0.758582 -0.651357
vn 0.002621 0.800409 -0.599449
vn 0.003435 0.168235 -0.985741
vn -0.004266 0.167835 -0.985806
vn -0.001995 0.996071 -0.088539
vn -0.004479 0.996801 -0.079804
vn 0.003655 0.996780 -0.080108
vn 0.000203 0.996162 -0.087530
vn 0.007328 -0.760287 0.649546
vn 0.000405 -0.745567 0.666431
vn -0.000474 -0.745497 0.666508
vn -0.006379 -0.760893 0.648846
vn -0.000726 -0.246592 0.969119
vn 0.000795 -0.246648 0.969105
vn 0.003766 -0.996390 0.084811
vn 0.001219 -0.995680 0.092847
vn -0.000298 -0.995759 0.091997
vn -0.003567 -0.996455 0.084048
vn -0.000890 0.636384 -0.771372
vn -0.002631 0.532320 -0.846539
vn 0.047481 0.670289 -0.740579
vn -0.840075 0.079763 -0.536574
vn -0.030093 -0.315830 -0.948338
vn -0.858377 -0.494559 0.136387
vn -0.032785 -0.960477 -0.276421
vn 0.001302 0.531626 -0.846978
vn -0.005471 0.639299 -0.768938
vn -0.059660 0.678120 -0.732526
vn 0.029279 -0.314129 -0.948929
vn 0.837848 0.091989 -0.538097
vn 0.031759 -0.960919 -0.275003
vn 0.857073 -0.493558 0.147741
vn 0.000306 0.510270 -0.860014
vn 0.010906 0.389659 -0.920895
vn 0.065804 0.320708 -0.944890
vn -0.029286 0.988110 -0.150937
vn -0.837797 0.437753 -0.326294
vn -0.031758 0.681311 0.731305
vn -0.857062 0.092423 0.506856
vn -0.014876 0.394138 -0.918931
vn -0.000238 0.514693 -0.857375
vn -0.077412 0.324310 -0.942778
vn 0.840125 0.441813 -0.314630
vn 0.030101 0.988354 -0.149169
vn 0.858402 0.102982 0.502535
vn 0.032778 0.682372 0.730270
vn 0.006959 0.870530 -0.492066
vn 0.003458 0.918838 -0.394619
vn -0.003015 0.709750 -0.704447
vn -0.051488 0.843250 -0.535049
vn 0.840611 0.540789 -0.030320
vn 0.025542 0.889382 0.456451
vn 0.876122 -0.234421 0.421258
vn 0.026841 0.122519 0.992103
vn -0.005667 0.921206 -0.389034
vn -0.019582 0.868397 -0.495483
vn 0.029982 0.835065 -0.549333
vn 0.002044 0.712620 -0.701548
vn -0.033724 0.885416 0.463574
vn -0.823061 0.566386 0.042164
vn -0.037504 0.122227 0.991793
vn -0.848107 -0.202953 0.489413
vn 0.007555 0.925517 -0.378631
vn 0.026501 0.962169 -0.271161
vn -0.024283 0.982623 -0.184019
vn 0.033726 0.298276 -0.953884
vn 0.823069 0.370668 -0.430306
vn 0.037502 -0.614875 -0.787733
vn 0.848094 -0.489608 -0.202537
vn -0.032664 0.961034 -0.274493
vn -0.008443 0.928802 -0.370480
vn 0.023485 0.979725 -0.198967
vn -0.840618 0.403779 -0.361003
vn -0.025536 0.306072 -0.951666
vn -0.876144 -0.463568 -0.132202
vn -0.026846 -0.614923 -0.788130
vn -0.010472 -0.762953 0.646369
vn -0.045142 -0.662997 0.747260
vn -0.008766 -0.677881 0.735120
vn 0.045736 -0.662804 0.747395
vn 0.010221 -0.761798 0.647734
vn 0.009299 -0.677761 0.735223
vn 0.010473 -0.229570 0.973236
vn 0.045138 -0.364827 0.929981
vn 0.014247 -0.325312 0.945500
vn -0.045736 -0.365024 0.929874
vn -0.010220 -0.231268 0.972837
vn -0.014861 -0.325504 0.945424
vn 0.009098 -0.760151 0.649683
vn 0.051177 -0.854289 0.517274
vn 0.013845 -0.843624 0.536756
vn -0.000030 -0.774919 0.632061
vn -0.045320 -0.852833 0.520213
vn -0.011565 -0.755997 0.654472
vn -0.000899 -0.775882 0.630877
vn -0.007295 -0.842042 0.539364
vn -0.009098 -0.996904 0.078099
vn -0.051174 -0.969839 0.238315
vn -0.019707 -0.981433 0.190792
vn 0.045319 -0.970890 0.235199
vn 0.011566 -0.997352 0.071797
vn 0.011946 -0.982269 0.187095
s 1
f 22/1/1 23/2/2 12/3/3 11/4/4
f 13/5/5 12/3/3 23/2/2 24/6/6
f 27/7/7 3/8/8 4/9/9 26/10/10
f 5/11/11 25/12/12 26/10/10 4/9/9
f 34/13/13 33/14/14 37/15/15 38/16/16
f 35/17/17 36/18/18 40/19/19 39/20/20
f 42/21/21 41/22/22 45/23/23 46/24/24
f 43/25/25 44/26/26 48/27/27 47/28/28
f 50/183/29 49/30/30 53/31/31 54/32/32
f 51/33/33 52/34/34 56/179/35 55/36/36
f 58/171/37 57/38/38 61/39/39 62/40/40
f 59/41/41 60/42/42 64/167/43 63/44/44
f 20/45/45 21/46/46 37/15/15 33/14/14
f 10/47/47 9/48/48 35/17/17 39/20/20
f 14/49/49 15/50/50 45/23/23 41/22/22
f 18/51/51 19/52/52 43/25/25 47/28/28
f 1/53/53 2/54/54 53/31/31 49/30/30
f 28/55/55 29/56/56 51/33/33 55/36/36
f 30/57/57 31/58/58 61/39/39 57/38/38
f 7/59/59 6/60/60 59/41/41 63/44/44
f 42/21/21 46/24/24 64/43/43 60/176/42
f 48/27/27 44/26/26 58/37/37 62/170/40
f 34/13/13 38/16/16 56/35/35 52/188/34
f 40/19/19 36/18/18 50/29/29 54/182/32
f 133/61/61 132/62/62 131/63/63 130/64/64
f 135/65/65 22/1/1 11/4/4 138/66/66
f 143/67/67 16/68/68 17/69/69 146/70/70
f 149/71/71 148/72/72 151/73/73 150/74/74
f 27/7/7 156/75/75 153/76/76 3/8/8
f 8/77/77 164/78/78 161/79/79 32/80/80
f 65/81/81 66/82/82 130/64/64 129/83/83
f 66/82/82 65/81/81 68/84/84 67/85/85
f 67/85/85 68/84/84 99/86/86 100/186/87
f 69/88/88 70/89/89 134/90/90 133/61/61
f 70/89/89 69/88/88 72/91/91 71/92/92
f 71/92/92 72/91/91 103/93/93 104/184/94
f 73/95/95 74/96/96 136/97/97 135/65/65
f 74/96/96 73/95/95 76/98/98 75/99/99
f 75/99/99 76/98/98 111/100/100 112/180/101
f 77/102/102 78/103/103 138/66/66 137/104/104
f 78/103/103 77/102/102 80/105/105 79/106/106
f 79/106/106 80/105/105 107/107/107 108/178/108
f 81/109/109 82/110/110 140/111/111 139/112/112
f 82/110/110 81/109/109 84/113/113 83/114/114
f 83/114/114 84/113/113 115/115/115 116/174/116
f 85/117/117 86/118/118 142/119/119 141/120/120
f 86/118/118 85/117/117 88/121/121 87/122/122
f 87/122/122 88/121/121 119/123/123 120/172/124
f 89/125/125 90/126/126 144/127/127 143/67/67
f 90/126/126 89/125/125 92/128/128 91/129/129
f 91/129/129 92/128/128 127/130/130 128/168/131
f 93/132/132 94/133/133 146/70/70 145/134/134
f 94/133/133 93/132/132 96/135/135 95/136/136
f 95/136/136 96/135/135 123/137/137 124/166/138
f 97/139/139 98/140/140 152/141/141 151/73/73
f 98/140/140 97/139/139 100/87/87 99/187/86
f 101/142/142 102/143/143 148/72/72 147/144/144
f 102/143/143 101/142/142 104/94/94 103/185/93
f 105/145/145 106/146/146 154/147/147 153/76/76
f 106/146/146 105/145/145 108/108/108 107/181/107
f 109/148/148 110/149/149 156/75/75 155/150/150
f 110/149/149 109/148/148 112/101/101 111/177/100
f 113/151/151 114/152/152 160/153/153 159/154/154
f 114/152/152 113/151/151 116/116/116 115/175/115
f 117/155/155 118/156/156 158/157/157 157/158/158
f 118/156/156 117/155/155 120/124/124 119/173/123
f 121/159/159 122/160/160 162/161/161 161/79/79
f 122/160/160 121/159/159 124/138/138 123/169/137
f 125/162/162 126/163/163 164/78/78 163/164/164
f 126/163/163 125/162/162 128/131/131 127/165/130
f 66/82/82 67/85/85 72/91/91 69/88/88
f 68/84/84 65/81/81 33/14/14 34/13/13
f 36/18/18 35/17/17 70/89/89 71/92/92
f 38/16/16 37/15/15 74/96/96 75/99/99
f 39/20/20 40/19/19 80/105/105 77/102/102
f 76/98/98 73/95/95 78/103/103 79/106/106
f 82/110/110 83/114/114 88/121/121 85/117/117
f 84/113/113 81/109/109 41/22/22 42/21/21
f 44/26/26 43/25/25 86/118/118 87/122/122
f 46/24/24 45/23/23 90/126/126 91/129/129
f 47/28/28 48/27/27 96/135/135 93/132/132
f 92/128/128 89/125/125 94/133/133 95/136/136
f 98/140/140 99/187/86 52/34/34 51/33/33
f 100/87/87 97/139/139 102/143/143 103/185/93
f 104/94/94 101/142/142 49/30/30 50/183/29
f 54/32/32 53/31/31 106/146/146 107/181/107
f 55/36/36 56/179/35 112/101/101 109/148/148
f 108/108/108 105/145/145 110/149/149 111/177/100
f 114/152/152 115/175/115 60/42/42 59/41/41
f 116/116/116 113/151/151 118/156/156 119/173/123
f 120/124/124 117/155/155 57/38/38 58/171/37
f 62/40/40 61/39/39 122/160/160 123/169/137
f 63/44/44 64/167/43 128/131/131 125/162/162
f 124/138/138 121/159/159 126/163/163 127/165/130
f 65/81/81 129/83/83 20/45/45 33/14/14
f 9/48/48 134/90/90 70/89/89 35/17/17
f 69/88/88 133/61/61 130/64/64 66/82/82
f 21/46/46 136/97/97 74/96/96 37/15/15
f 73/95/95 135/65/65 138/66/66 78/103/103
f 77/102/102 137/104/104 10/47/47 39/20/20
f 81/109/109 139/112/112 14/49/49 41/22/22
f 19/52/52 142/119/119 86/118/118 43/25/25
f 85/117/117 141/120/120 140/111/111 82/110/110
f 15/50/50 144/127/127 90/126/126 45/23/23
f 89/125/125 143/67/67 146/70/70 94/133/133
f 93/132/132 145/134/134 18/51/51 47/28/28
f 97/139/139 151/73/73 148/72/72 102/143/143
f 101/142/142 147/144/144 1/53/53 49/30/30
f 29/56/56 152/141/141 98/140/140 51/33/33
f 2/54/54 154/147/147 106/146/146 53/31/31
f 105/145/145 153/76/76 156/75/75 110/149/149
f 109/148/148 155/150/150 28/55/55 55/36/36
f 113/151/151 159/154/154 158/157/157 118/156/156
f 117/155/155 157/158/158 30/57/57 57/38/38
f 6/60/60 160/153/153 114/152/152 59/41/41
f 31/58/58 162/161/161 122/160/160 61/39/39
f 121/159/159 161/79/79 164/78/78 126/163/163
f 125/162/162 163/164/164 7/59/59 63/44/44
f 46/24/24 91/129/129 128/168/131 64/43/43
f 92/128/128 95/136/136 124/166/138 127/130/130
f 96/135/135 48/27/27 62/170/40 123/137/137
f 44/26/26 87/122/122 120/172/124 58/37/37
f 88/121/121 83/114/114 116/174/116 119/123/123
f 84/113/113 42/21/21 60/176/42 115/115/115
f 38/16/16 75/99/99 112/180/101 56/35/35
f 76/98/98 79/106/106 108/178/108 111/100/100
f 80/105/105 40/19/19 54/182/32 107/107/107
f 36/18/18 71/92/92 104/184/94 50/29/29
f 72/91/91 67/85/85 100/186/87 103/93/93
f 68/84/84 34/13/13 52/188/34 99/86/86
f 129/83/83 130/64/64 131/63/63
f 132/62/62 133/61/61 134/90/90
f 22/1/1 135/65/65 136/97/97
f 137/104/104 138/66/66 11/4/4
f 139/112/112 140/111/111 132/62/62
f 131/63/63 141/120/120 142/119/119
f 16/68/68 143/67/67 144/127/127
f 145/134/134 146/70/70 17/69/69
f 147/144/144 148/72/72 149/71/71
f 150/74/74 151/73/73 152/141/141
f 3/8/8 153/76/76 154/147/147
f 155/150/150 156/75/75 27/7/7
f 157/158/158 158/157/157 150/74/74
f 149/71/71 159/154/154 160/153/153
f 32/80/80 161/79/79 162/161/161
f 163/164/164 164/78/78 8/77/77
f 131/63/63 132/62/62 140/111/111 141/120/120
f 149/71/71 150/74/74 158/157/157 159/154/154
