# This file uses centimeters as units for non-parametric coordinates.

v 0.000000 600.000000 0.000000
v 0.000000 0.000000 0.000000
v 0.000000 600.000000 600.000122
v 0.000000 0.000000 600.000000
v -30.000002 119.999992 0.000000
v -30.000002 120.000000 600.000000
v -30.000000 264.000000 0.000000
v -30.000000 264.000000 600.000061
v -30.000000 499.203339 0.000000
v -30.000000 566.396606 0.000000
v -30.000000 566.396606 600.000122
v -30.000000 499.203339 600.000122
v -60.000000 588.281738 0.000000
v -60.000000 588.281738 600.000122
v -60.000000 600.000000 600.000122
v -60.000000 600.000000 0.000000
v -60.000000 316.189392 -0.000015
v -60.000000 316.189392 600.000061
v -60.000000 447.013947 600.000122
v -60.000000 447.013947 -0.000015
v -60.000000 -0.000001 0.000000
v -60.000000 -0.000001 600.000000
v -60.000000 77.848595 600.000000
v -60.000000 77.848587 0.000000
v 0.000000 316.189392 0.000000
v 0.000000 316.189392 600.000061
v 0.000000 499.203339 0.000000
v 0.000000 499.203339 600.000122
v 0.000000 126.475761 600.000000
v 0.000000 126.475746 0.000000
vt 0.284214 0.296500
vt 0.284214 0.003759
vt 0.010796 0.003759
vt 0.010796 0.296500
vt 0.010243 0.062296
vt 0.284115 0.062296
vt 0.010243 0.101985
vt 0.284115 0.278430
vt 0.284115 0.101985
vt 0.010243 0.235462
vt 0.010243 0.278430
vt 0.284115 0.235462
vt 0.010243 0.291040
vt 0.284115 0.291040
vt 0.284115 0.296389
vt 0.010243 0.296389
vt 0.010243 0.167077
vt 0.284115 0.167077
vt 0.284115 0.176880
vt 0.010243 0.176880
vt 0.010243 0.003870
vt 0.284115 0.003870
vt 0.284115 0.035064
vt 0.010243 0.035064
vt 0.284214 0.163531
vt 0.010796 0.163531
vt 0.284214 0.233671
vt 0.010796 0.233671
vt 0.010796 0.060479
vt 0.284214 0.060479
vn 1.000000 0.000000 0.000000
vn 1.000000 0.000000 0.000000
vn 1.000000 0.000000 0.000000
vn 1.000000 0.000000 0.000000
vn -0.745971 -0.665978 0.000000
vn -0.745971 -0.665978 0.000000
vn -1.000000 0.000000 0.000000
vn -1.000000 0.000000 0.000000
vn -1.000000 0.000000 0.000000
vn -1.000000 0.000000 0.000000
vn -0.970143 0.242536 -0.000000
vn -0.970143 0.242536 -0.000000
vn -0.987261 0.159106 -0.000000
vn -0.987262 0.159106 -0.000000
vn -0.988510 -0.151156 0.000000
vn -0.988510 -0.151156 0.000000
vn -0.986830 -0.161763 0.000000
vn -0.986830 -0.161763 0.000000
vn -0.986830 0.161763 0.000000
vn -0.986830 0.161763 0.000000
vn -0.947698 -0.319168 0.000000
vn -0.969847 0.243716 0.000000
vn -0.969847 0.243715 0.000000
vn -0.947698 -0.319168 0.000000
vn 1.000000 0.000000 0.000000
vn 1.000000 0.000000 0.000000
vn 1.000000 0.000000 0.000000
vn 1.000000 0.000000 0.000000
vn 1.000000 0.000000 0.000000
vn 1.000000 0.000000 0.000000
s 1
f 29/29/1 30/30/2 25/25/3 26/26/4
s 2
f 13/13/5 14/14/6 15/15/7 16/16/8
f 21/21/9 22/22/10 23/23/11 24/24/12
f 5/5/13 6/6/14 8/9/15 7/7/16
f 17/17/17 18/18/18 19/19/19 20/20/20
f 10/11/21 9/10/22 12/12/23 11/8/24
f 10/11/21 11/8/24 14/14/6 13/13/5
f 7/7/16 8/9/15 18/18/18 17/17/17
f 12/12/23 9/10/22 20/20/20 19/19/19
f 6/6/14 5/5/13 24/24/12 23/23/11
s 1
f 26/26/4 25/25/3 27/27/25 28/28/26
f 28/28/26 27/27/25 1/1/27 3/4/28
f 4/3/29 2/2/30 30/30/2 29/29/1
