# This file uses centimeters as units for non-parametric coordinates.

v 0.000000 91.666428 0.003058
v 375.000000 91.666428 0.000000
v 0.000000 604.422791 0.000000
v 375.000000 604.422791 0.000000
v 0.000000 604.422791 -30.000000
v 375.000000 604.422791 -30.000000
v 0.000000 91.666428 -29.996943
v 375.000000 91.666428 -30.000000
v 0.000000 0.000000 30.003057
v 375.000000 0.000000 30.000000
v 375.000000 71.818878 30.000000
v 0.000000 71.818878 30.000000
v 0.000000 624.270386 30.000000
v 375.000000 624.270386 30.000000
v 375.000000 700.200073 30.000000
v 0.000000 700.200073 30.000000
v 0.000000 700.200073 -60.000000
v 375.000000 700.200073 -60.000000
v 375.000000 624.270386 -60.000000
v 0.000000 624.270386 -60.000000
v 0.000000 71.818878 -59.996941
v 375.000000 71.818878 -60.000000
v 375.000000 0.000000 -60.000000
v 0.000000 0.000000 -59.996941
vt 0.810294 0.055025
vt 0.810294 0.306653
vt 0.992114 0.055025
vt 0.810372 0.055150
vt 0.992114 0.306653
vt 0.810372 0.306526
vt 0.992036 0.306526
vt 0.992036 0.055150
vt 0.992114 0.359549
vt 0.810294 0.359549
vt 0.810294 0.324305
vt 0.992114 0.324305
vt 0.992114 0.037373
vt 0.810294 0.037373
vt 0.810294 0.000111
vt 0.992114 0.000111
vt 0.810372 0.000291
vt 0.992036 0.000291
vt 0.992036 0.037516
vt 0.810372 0.037516
vt 0.810372 0.324160
vt 0.992036 0.324160
vt 0.992036 0.359369
vt 0.810372 0.359369
vn 0.000004 0.000021 1.000000
vn 0.000004 0.000021 1.000000
vn 0.000004 0.000021 1.000000
vn 0.000004 0.000021 1.000000
vn 0.000004 0.000003 1.000000
vn 0.000004 0.000003 1.000000
vn 0.000004 0.000003 1.000000
vn 0.000004 0.000003 1.000000
vn 0.000000 0.000000 1.000000
vn 0.000000 0.000000 1.000000
vn 0.000000 0.000000 1.000000
vn 0.000000 0.000000 1.000000
vn 0.000000 0.000000 -1.000000
vn 0.000000 0.000000 -1.000000
vn 0.000000 0.000000 -1.000000
vn 0.000000 0.000000 -1.000000
vn -0.000004 -0.000003 -1.000000
vn -0.000004 -0.000003 -1.000000
vn -0.000004 -0.000003 -1.000000
vn -0.000004 -0.000003 -1.000000
vn -0.000008 0.000000 -1.000000
vn -0.000008 0.000000 -1.000000
vn -0.000008 0.000000 -1.000000
vn -0.000008 0.000000 -1.000000
vn 0.000002 0.833988 0.551782
vn 0.000002 0.833988 0.551782
vn 0.000002 0.833988 0.551782
vn 0.000002 0.833988 0.551782
vn 0.000000 -0.834001 0.551763
vn 0.000000 -0.834001 0.551763
vn 0.000000 -0.834001 0.551763
vn 0.000000 -0.834001 0.551763
vn 0.000000 -0.834001 -0.551763
vn 0.000000 -0.834001 -0.551763
vn 0.000000 -0.834001 -0.551763
vn 0.000000 -0.834001 -0.551763
vn -0.000005 0.834001 -0.551763
vn -0.000005 0.834001 -0.551763
vn -0.000005 0.834001 -0.551763
vn -0.000005 0.834001 -0.551763
s off
f 12/12/1 9/9/2 10/10/3 11/11/4
f 1/5/5 2/2/6 4/1/7 3/3/8
f 16/16/9 13/13/10 14/14/11 15/15/12
f 18/18/13 19/19/14 20/20/15 17/17/16
f 5/4/17 6/8/18 8/7/19 7/6/20
f 22/22/21 23/23/22 24/24/23 21/21/24
f 2/2/25 1/5/26 12/12/27 11/11/28
f 3/3/29 4/1/30 14/14/31 13/13/32
f 6/8/33 5/4/34 20/20/35 19/19/36
f 7/6/37 8/7/38 22/22/39 21/21/40
